<svg xmlns="http://www.w3.org/2000/svg" viewBox="42 -1448 11709 2312" role="img" aria-label="a companion — your company for executive diagnostics, development, leadership">
  <g transform="scale(1,-1)">
    <g fill="#2F6BA5">
      <path transform="translate(0 0)" d="M217 685 164 699Q165 722 165 762Q165 804 164 829Q291 912 372 941Q434 962 511 962Q625 962 703.0 919.0Q781 876 819 796Q845 740 845 643L841 460V162Q841 114 849 93Q855 78 868 71Q878 65 910 63L975 57V0Q893 7 831 7Q771 7 671 0L676 176Q472 22 434.0 2.5Q396 -17 338 -17Q217 -17 149.5 47.5Q82 112 82 219Q82 288 105.5 345.0Q129 402 162.0 435.5Q195 469 229 485Q287 512 417.5 543.0Q548 574 676 589Q677 684 653.0 737.0Q629 790 572.0 824.0Q515 858 433 858Q374 858 329.5 842.0Q285 826 275 815L257 779Q230 719 217 685ZM676 528Q546 506 454.0 479.0Q362 452 324 423Q301 406 284 372Q258 322 258 261Q258 187 299.0 145.5Q340 104 413 104Q480 104 545.5 142.5Q611 181 676 258Z"/>
      <path transform="translate(1536 0)" d="M868 115 828 48Q759 11 691.5 -6.0Q624 -23 539 -23Q329 -23 204.5 103.5Q80 230 80 451Q80 568 113.5 654.5Q147 741 196 788Q229 821 321.5 873.5Q414 926 451 941Q519 970 614 970Q704 970 776 951Q822 939 868 911Q856 834 851.0 794.5Q846 755 838 651H781Q775 748 769 772Q765 787 751 799Q715 827 658.5 847.5Q602 868 535 868Q451 868 389.5 833.5Q328 799 294.0 724.0Q260 649 260 538Q260 402 308.0 292.0Q356 182 438.5 131.5Q521 81 623 81Q674 81 722.5 93.5Q771 106 847 141Z"/>
      <path transform="translate(2445 0)" d="M68 460Q68 684 210.5 825.5Q353 967 576 967Q786 967 918.0 835.0Q1050 703 1050 494Q1050 348 982.0 227.0Q914 106 790.0 37.5Q666 -31 517 -31Q401 -31 320.5 8.0Q240 47 190.0 106.0Q140 165 114 227Q68 336 68 460ZM257 534Q257 411 298.0 284.0Q339 157 416.5 98.5Q494 40 585 40Q701 40 779.0 132.0Q857 224 857 415Q857 574 810.5 689.5Q764 805 692.0 852.5Q620 900 533 900Q410 900 333.5 811.0Q257 722 257 534Z"/>
      <path transform="translate(3563 0)" d="M42 0V57L137 58Q158 59 169.5 65.5Q181 72 187 82Q198 102 201 153Q201 166 207 440V559Q207 639 204 731Q201 790 194.5 801.0Q188 812 172.0 817.5Q156 823 42 822V879Q244 907 337 952Q357 962 364 962Q371 962 375.0 957.0Q379 952 379 942Q379 935 378 926Q374 878 372 783L503 903Q528 925 534 928Q557 941 600.0 952.0Q643 963 690 963Q786 963 861.0 916.0Q936 869 976 777L1086 879Q1123 913 1137 921Q1163 936 1211.0 949.0Q1259 962 1306 962Q1420 962 1497.0 901.5Q1574 841 1596 764Q1610 713 1610 544V440L1613 301Q1616 180 1616 159Q1618 109 1628 86Q1632 77 1640.5 70.5Q1649 64 1665 60Q1671 59 1775 57V0Q1649 6 1603 6Q1559 6 1426 0L1435 276L1438 384V470Q1438 638 1421.0 699.5Q1404 761 1349.5 799.0Q1295 837 1223 837Q1140 837 1073 789Q1023 752 1007.0 702.0Q991 652 991 507V440L994 301Q996 180 997 159Q999 109 1009 86Q1013 77 1021.0 70.5Q1029 64 1045 60Q1052 59 1156 57V0Q1009 8 920 8Q848 8 658 0V57L753 58Q775 59 786.5 65.5Q798 72 804 82Q815 102 817 153Q818 166 823 440V518Q823 647 803.0 706.5Q783 766 733.0 801.5Q683 837 613 837Q553 837 499.5 811.5Q446 786 417.0 748.0Q388 710 382 667Q372 598 372 501V440Q378 180 378 159Q380 109 390 86Q394 77 402.0 70.5Q410 64 427 60Q433 59 537 57V0Q399 8 302 8Q216 8 42 0Z"/>
      <path transform="translate(5371 0)" d="M36 823V881Q54 881 112.0 889.5Q170 898 241.0 918.5Q312 939 348 958Q359 964 366 964Q373 964 377.5 959.0Q382 954 382 942Q382 937 381 918Q379 889 379 865V759Q548 916 590 936Q645 963 754 963Q881 963 973.0 905.5Q1065 848 1106.5 756.5Q1148 665 1148 561Q1148 498 1133.5 442.0Q1119 386 1096.5 336.5Q1074 287 1046.5 245.5Q1019 204 995 183Q981 170 922.5 123.0Q864 76 797.5 41.5Q731 7 705 -1Q648 -19 584 -19Q534 -19 486.5 -7.0Q439 5 379 34V-125Q384 -378 385 -404Q386 -453 397 -476Q401 -487 409.5 -493.5Q418 -500 434 -503Q443 -505 553 -507V-564Q428 -559 222 -559Q108 -559 47 -564V-507L142 -506Q163 -505 174.5 -498.5Q186 -492 192 -482Q203 -462 206 -411Q207 -398 212 -125V230Q212 403 208.0 585.0Q204 767 199.5 783.5Q195 800 185.0 808.5Q175 817 159 820ZM379 206Q432 152 500.0 121.0Q568 90 643 90Q734 90 808.5 135.5Q883 181 926.5 277.0Q970 373 970 486Q970 595 928.5 675.5Q887 756 811.0 796.5Q735 837 658 837Q601 837 545.5 814.5Q490 792 445.0 749.0Q400 706 385 667Q379 648 379 594Z"/>
      <path transform="translate(6602 0)" d="M217 685 164 699Q165 722 165 762Q165 804 164 829Q291 912 372 941Q434 962 511 962Q625 962 703.0 919.0Q781 876 819 796Q845 740 845 643L841 460V162Q841 114 849 93Q855 78 868 71Q878 65 910 63L975 57V0Q893 7 831 7Q771 7 671 0L676 176Q472 22 434.0 2.5Q396 -17 338 -17Q217 -17 149.5 47.5Q82 112 82 219Q82 288 105.5 345.0Q129 402 162.0 435.5Q195 469 229 485Q287 512 417.5 543.0Q548 574 676 589Q677 684 653.0 737.0Q629 790 572.0 824.0Q515 858 433 858Q374 858 329.5 842.0Q285 826 275 815L257 779Q230 719 217 685ZM676 528Q546 506 454.0 479.0Q362 452 324 423Q301 406 284 372Q258 322 258 261Q258 187 299.0 145.5Q340 104 413 104Q480 104 545.5 142.5Q611 181 676 258Z"/>
      <path transform="translate(7626 0)" d="M28 0V57L123 58Q144 59 155.5 65.5Q167 72 173 82Q184 102 187 153Q187 166 193 440V559Q193 639 190 731Q187 790 180.5 801.0Q174 812 158.0 817.5Q142 823 28 822V879Q230 907 323 952Q343 962 350 962Q357 962 361.0 957.0Q365 952 365 942Q365 935 364 926Q361 890 358 774L544 933Q626 963 699 963Q780 963 852.5 930.0Q925 897 961.5 847.0Q998 797 1010 721Q1017 676 1017 470V293Q1017 163 1024 116Q1029 86 1039.5 74.5Q1050 63 1072 60L1179 57V0Q1081 7 1016 7Q960 7 830 0Q844 247 844 312V480Q844 637 832 686Q815 753 755.0 794.0Q695 835 610 835Q535 835 473.0 799.5Q411 764 384.5 717.5Q358 671 358 561V440Q364 180 364 159Q366 109 376 86Q380 77 388.0 70.5Q396 64 413 60Q419 59 523 57V0Q401 7 302 7Q218 7 28 0Z"/>
      <path transform="translate(8818 0)" d="M289 1408Q336 1408 368.5 1375.0Q401 1342 401 1295Q401 1249 368.0 1216.0Q335 1183 289 1183Q242 1183 209.0 1216.0Q176 1249 176 1295Q176 1342 209.0 1375.0Q242 1408 289 1408ZM45 823V880Q239 902 371 964L393 948Q385 735 385 622V440Q390 180 391 159Q392 109 402 86Q407 77 415.0 70.5Q423 64 439 60Q445 59 550 57V0Q398 7 307 7Q227 7 45 0V57L140 58Q161 59 172.5 65.5Q184 72 190 82Q201 102 204 153Q204 166 210 440V616Q210 765 200 793Q194 808 178.5 815.5Q163 823 45 823Z"/>
      <path transform="translate(9414 0)" d="M68 460Q68 684 210.5 825.5Q353 967 576 967Q786 967 918.0 835.0Q1050 703 1050 494Q1050 348 982.0 227.0Q914 106 790.0 37.5Q666 -31 517 -31Q401 -31 320.5 8.0Q240 47 190.0 106.0Q140 165 114 227Q68 336 68 460ZM257 534Q257 411 298.0 284.0Q339 157 416.5 98.5Q494 40 585 40Q701 40 779.0 132.0Q857 224 857 415Q857 574 810.5 689.5Q764 805 692.0 852.5Q620 900 533 900Q410 900 333.5 811.0Q257 722 257 534Z"/>
      <path transform="translate(10532 0)" d="M28 0V57L123 58Q144 59 155.5 65.5Q167 72 173 82Q184 102 187 153Q187 166 193 440V559Q193 639 190 731Q187 790 180.5 801.0Q174 812 158.0 817.5Q142 823 28 822V879Q230 907 323 952Q343 962 350 962Q357 962 361.0 957.0Q365 952 365 942Q365 935 364 926Q361 890 358 774L544 933Q626 963 699 963Q780 963 852.5 930.0Q925 897 961.5 847.0Q998 797 1010 721Q1017 676 1017 470V293Q1017 163 1024 116Q1029 86 1039.5 74.5Q1050 63 1072 60L1179 57V0Q1081 7 1016 7Q960 7 830 0Q844 247 844 312V480Q844 637 832 686Q815 753 755.0 794.0Q695 835 610 835Q535 835 473.0 799.5Q411 764 384.5 717.5Q358 671 358 561V440Q364 180 364 159Q366 109 376 86Q380 77 388.0 70.5Q396 64 413 60Q419 59 523 57V0Q401 7 302 7Q218 7 28 0Z"/>
    </g>
    <g fill="#B4BAC0">
      <rect x="82" y="-311" width="5295" height="22"/>
      <rect x="5587" y="-311" width="6124" height="22"/>
    </g>
    <g fill="#3F5468" transform="translate(53 -717) scale(0.17574)">
        <path transform="translate(0 0)" d="M133.34027099609375 -401.94012451171875 186.89996337890625 -222.54107666015625 211.8397216796875 -229.1610107421875Q268.81964111328125 -243.70098876953125 314.359619140625 -237.02099609375Q359.89959716796875 -230.34100341796875 393.37969970703125 -194.680908203125Q426.85980224609375 -159.02081298828125 446.840087890625 -87.1204833984375L471.10040283203125 -5.10003662109375L46.4403076171875 1118H283.93865966796875L505.1993408203125 482.53887939453125Q542.119384765625 376.5589599609375 566.5894470214844 271.9490661621094Q591.0595092773438 167.33917236328125 619.51953125 63.41949462890625H552.2595825195312Q580.7196044921875 167.33917236328125 607.3096008300781 272.5390625Q633.8995971679688 377.73895263671875 670.5396118164062 482.53887939453125L896.1401977539062 1118H1131.7385864257812L646.1383666992188 -155.30047607421875Q612.1383666992188 -244.66046142578125 562.7484436035156 -305.04034423828125Q513.3585205078125 -365.42022705078125 445.0487365722656 -395.7101135253906Q376.73895263671875 -426 286.57940673828125 -426Q234.799560546875 -426 194.039794921875 -418.46002197265625Q153.280029296875 -410.9200439453125 133.34027099609375 -401.94012451171875Z"/>
        <path transform="translate(1178 0)" d="M618.039794921875 -23.280029296875Q460.6400146484375 -23.280029296875 343.3501281738281 48.809967041015625Q226.06024169921875 120.89996337890625 161.25027465820312 250.80996704101562Q96.4403076171875 380.719970703125 96.4403076171875 552.719970703125Q96.4403076171875 727.1799926757812 161.25027465820312 857.5Q226.06024169921875 987.8200073242188 343.3501281738281 1059.9100036621094Q460.6400146484375 1132 618.039794921875 1132Q776.2595825195312 1132 893.7794799804688 1059.9100036621094Q1011.2993774414062 987.8200073242188 1076.1093444824219 857.5Q1140.9193115234375 727.1799926757812 1140.9193115234375 552.719970703125Q1140.9193115234375 380.719970703125 1076.1093444824219 250.80996704101562Q1011.2993774414062 120.89996337890625 893.7794799804688 48.809967041015625Q776.2595825195312 -23.280029296875 618.039794921875 -23.280029296875ZM618.039794921875 162.73895263671875Q720.0602416992188 162.73895263671875 786.6705017089844 216.2391357421875Q853.28076171875 269.73931884765625 885.5808715820312 358.47955322265625Q917.8809814453125 447.21978759765625 917.8809814453125 553.0799560546875Q917.8809814453125 659.9401245117188 885.5808715820312 749.2303771972656Q853.28076171875 838.5206298828125 786.6705017089844 892.2508239746094Q720.0602416992188 945.9810180664062 618.039794921875 945.9810180664062Q516.6593627929688 945.9810180664062 450.77911376953125 892.2508239746094Q384.89886474609375 838.5206298828125 352.5987548828125 749.640380859375Q320.29864501953125 660.7601318359375 320.29864501953125 553.0799560546875Q320.29864501953125 447.21978759765625 352.5987548828125 358.47955322265625Q384.89886474609375 269.73931884765625 450.77911376953125 216.2391357421875Q516.6593627929688 162.73895263671875 618.039794921875 162.73895263671875Z"/>
        <path transform="translate(2415 0)" d="M528.9003295898438 -14Q415.0003662109375 -14 329.0503845214844 33.849945068359375Q243.10040283203125 81.69989013671875 195.51040649414062 175.8798828125Q147.92041015625 270.05987548828125 147.92041015625 407.6400146484375V1118H367.8787841796875V435.05950927734375Q367.8787841796875 314.33917236328125 431.198974609375 245.92898559570312Q494.5191650390625 177.518798828125 604.1394653320312 177.518798828125Q678.7396850585938 177.518798828125 737.2898864746094 210.08889770507812Q795.840087890625 242.65899658203125 829.7802124023438 305.2091979980469Q863.7203369140625 367.7593994140625 863.7203369140625 455.5596923828125V1118H1084.4987182617188V0H873.960205078125L872.520263671875 273.69989013671875H894.3603515625Q844.8802490234375 122.09967041015625 751.18017578125 54.049835205078125Q657.4801025390625 -14 528.9003295898438 -14Z"/>
        <path transform="translate(3647 0)" d="M147.92041015625 0V1118H360.798828125V938.4403076171875H372.798828125Q403.61883544921875 1029.56005859375 480.7789306640625 1081.6000366210938Q557.9390258789062 1133.6400146484375 655.9591064453125 1133.6400146484375Q677.0390625 1133.6400146484375 704.2690734863281 1132.1000366210938Q731.4990844726562 1130.56005859375 748.9390258789062 1128.3001098632812V918.3212890625Q736.9791870117188 921.9412231445312 702.9092712402344 926.0312194824219Q668.83935546875 930.1212158203125 633.7393188476562 930.1212158203125Q557.5191650390625 930.1212158203125 496.9890441894531 897.8811645507812Q436.45892333984375 865.64111328125 402.1688537597656 809.1210327148438Q367.8787841796875 752.6009521484375 367.8787841796875 678.7608642578125V0Z"/>
        <path transform="translate(4985 0)" d="M617.8598022460938 -23.280029296875Q460.46002197265625 -23.280029296875 343.2601318359375 48.809967041015625Q226.06024169921875 120.89996337890625 161.25027465820312 250.80996704101562Q96.4403076171875 380.719970703125 96.4403076171875 552.719970703125Q96.4403076171875 727.1799926757812 161.25027465820312 857.5Q226.06024169921875 987.8200073242188 343.2601318359375 1059.9100036621094Q460.46002197265625 1132 617.8598022460938 1132Q705.1595458984375 1132 781.119384765625 1109.3800659179688Q857.0792236328125 1086.7601318359375 918.379150390625 1044.3802490234375Q979.6790771484375 1002.0003662109375 1022.319091796875 940.7205200195312Q1064.9591064453125 879.440673828125 1085.6192016601562 802.120849609375L877.3406372070312 752.0408935546875Q866.2406005859375 795.2208862304688 843.3105163574219 830.7709045410156Q820.3804321289062 866.3209228515625 787.6703186035156 892.1909484863281Q754.960205078125 918.0609741210938 712.4700622558594 932.02099609375Q669.9799194335938 945.9810180664062 618.9397583007812 945.9810180664062Q517.559326171875 945.9810180664062 451.49908447265625 892.6108093261719Q385.4388427734375 839.2406005859375 352.8687438964844 750.3603515625Q320.29864501953125 661.4801025390625 320.29864501953125 553.0799560546875Q320.29864501953125 446.49981689453125 352.8687438964844 357.8495788574219Q385.4388427734375 269.1993408203125 451.49908447265625 215.96914672851562Q517.559326171875 162.73895263671875 618.9397583007812 162.73895263671875Q670.7999267578125 162.73895263671875 714.1100769042969 177.198974609375Q757.4202270507812 191.65899658203125 791.0403442382812 218.43902587890625Q824.6604614257812 245.21905517578125 847.5905456542969 282.6790771484375Q870.5206298828125 320.13909912109375 881.440673828125 365.13909912109375L1088.8992309570312 315.2391357421875Q1069.0591430664062 235.73931884765625 1026.0091247558594 173.45947265625Q982.9591064453125 111.17962646484375 921.3391723632812 66.979736328125Q859.71923828125 22.77984619140625 782.8493957519531 -0.250091552734375Q705.9795532226562 -23.280029296875 617.8598022460938 -23.280029296875Z"/>
        <path transform="translate(6167 0)" d="M618.039794921875 -23.280029296875Q460.6400146484375 -23.280029296875 343.3501281738281 48.809967041015625Q226.06024169921875 120.89996337890625 161.25027465820312 250.80996704101562Q96.4403076171875 380.719970703125 96.4403076171875 552.719970703125Q96.4403076171875 727.1799926757812 161.25027465820312 857.5Q226.06024169921875 987.8200073242188 343.3501281738281 1059.9100036621094Q460.6400146484375 1132 618.039794921875 1132Q776.2595825195312 1132 893.7794799804688 1059.9100036621094Q1011.2993774414062 987.8200073242188 1076.1093444824219 857.5Q1140.9193115234375 727.1799926757812 1140.9193115234375 552.719970703125Q1140.9193115234375 380.719970703125 1076.1093444824219 250.80996704101562Q1011.2993774414062 120.89996337890625 893.7794799804688 48.809967041015625Q776.2595825195312 -23.280029296875 618.039794921875 -23.280029296875ZM618.039794921875 162.73895263671875Q720.0602416992188 162.73895263671875 786.6705017089844 216.2391357421875Q853.28076171875 269.73931884765625 885.5808715820312 358.47955322265625Q917.8809814453125 447.21978759765625 917.8809814453125 553.0799560546875Q917.8809814453125 659.9401245117188 885.5808715820312 749.2303771972656Q853.28076171875 838.5206298828125 786.6705017089844 892.2508239746094Q720.0602416992188 945.9810180664062 618.039794921875 945.9810180664062Q516.6593627929688 945.9810180664062 450.77911376953125 892.2508239746094Q384.89886474609375 838.5206298828125 352.5987548828125 749.640380859375Q320.29864501953125 660.7601318359375 320.29864501953125 553.0799560546875Q320.29864501953125 447.21978759765625 352.5987548828125 358.47955322265625Q384.89886474609375 269.73931884765625 450.77911376953125 216.2391357421875Q516.6593627929688 162.73895263671875 618.039794921875 162.73895263671875Z"/>
        <path transform="translate(7404 0)" d="M147.92041015625 0V1118H357.47900390625L362.97882080078125 858.640380859375H346.45892333984375Q370.17889404296875 953.7802124023438 420.1288757324219 1015.0801391601562Q470.078857421875 1076.3800659179688 537.1188354492188 1106.6500549316406Q604.1588134765625 1136.9200439453125 677.0587768554688 1136.9200439453125Q798.518798828125 1136.9200439453125 873.5688171386719 1061.3800659179688Q948.6188354492188 985.840087890625 974.9386596679688 851.2406005859375H947.3388061523438Q968.958740234375 943.1602783203125 1023.2186889648438 1006.9501647949219Q1077.4786376953125 1070.7400512695312 1153.5186157226562 1103.8300476074219Q1229.55859375 1136.9200439453125 1317.4786376953125 1136.9200439453125Q1416.278564453125 1136.9200439453125 1496.4585571289062 1094.0200805664062Q1576.6385498046875 1051.1201171875 1623.778564453125 966.2101135253906Q1670.9185791015625 881.3001098632812 1670.9185791015625 754V0H1450.960205078125V731.5407104492188Q1450.960205078125 843.9010620117188 1388.5399780273438 894.0111389160156Q1326.1197509765625 944.1212158203125 1241.1595458984375 944.1212158203125Q1172.279296875 944.1212158203125 1122.09912109375 914.8711242675781Q1071.9189453125 885.6210327148438 1044.8488464355469 834.3108825683594Q1017.7787475585938 783.000732421875 1017.7787475585938 715.9605712890625V0H801.0602416992188V746.3008422851562Q801.0602416992188 835.7009887695312 743.56005859375 889.9111022949219Q686.0598754882812 944.1212158203125 596.9996337890625 944.1212158203125Q536.1394653320312 944.1212158203125 483.5892639160156 915.6911315917969Q431.0390625 887.2610473632812 399.45892333984375 831.8508605957031Q367.8787841796875 776.440673828125 367.8787841796875 694.640380859375V0Z"/>
        <path transform="translate(9223 0)" d="M147.92041015625 -418V1118H362.23876953125V935.9401245117188H380.4388427734375Q399.97882080078125 970.7999267578125 435.41876220703125 1016.7499084472656Q470.85870361328125 1062.6998901367188 534.5887145996094 1097.3499450683594Q598.3187255859375 1132 702.638916015625 1132Q837.4191284179688 1132 942.6591796875 1063.9799194335938Q1047.8992309570312 995.9598388671875 1108.8492126464844 866.9998168945312Q1169.7991943359375 738.039794921875 1169.7991943359375 556.3599853515625Q1169.7991943359375 375.66009521484375 1109.7991943359375 246.2000732421875Q1049.7991943359375 116.74005126953125 944.4691467285156 47.269989013671875Q839.1390991210938 -22.2000732421875 702.7389526367188 -22.2000732421875Q601.7787475585938 -22.2000732421875 537.4087219238281 12.410003662109375Q473.0386962890625 47.02008056640625 436.5987548828125 93.16009521484375Q400.1588134765625 139.30010986328125 380.4388427734375 174.97991943359375H367.8787841796875V-418ZM653.9598388671875 165.25885009765625Q750.1401977539062 165.25885009765625 814.8804321289062 217.259033203125Q879.6206665039062 269.25921630859375 912.4207763671875 358.27947998046875Q945.2208862304688 447.29974365234375 945.2208862304688 558Q945.2208862304688 668.0602416992188 912.8307800292969 755.4404907226562Q880.440673828125 842.8207397460938 815.700439453125 893.680908203125Q750.960205078125 944.5410766601562 653.9598388671875 944.5410766601562Q559.5994873046875 944.5410766601562 494.999267578125 896.1409301757812Q430.3990478515625 847.7407836914062 397.4189453125 761.1805419921875Q364.4388427734375 674.6203002929688 364.4388427734375 558Q364.4388427734375 441.73968505859375 397.8289489746094 353.21942138671875Q431.21905517578125 264.69915771484375 496.2292785644531 214.97900390625Q561.239501953125 165.25885009765625 653.9598388671875 165.25885009765625Z"/>
        <path transform="translate(10489 0)" d="M460.74041748046875 -24.56005859375Q354.5604248046875 -24.56005859375 268.7803955078125 14.629974365234375Q183.0003662109375 53.82000732421875 132.90032958984375 129.9200439453125Q82.80029296875 206.02008056640625 82.80029296875 316.2000732421875Q82.80029296875 411.4801025390625 119.54034423828125 472.38006591796875Q156.2803955078125 533.280029296875 218.43045043945312 569.0399780273438Q280.58050537109375 604.7999267578125 357.1305236816406 622.7898864746094Q433.6805419921875 640.7798461914062 513.3004760742188 650.0598754882812Q612.2205200195312 661.9799194335938 674.0505676269531 669.5198974609375Q735.880615234375 677.0598754882812 765.4806518554688 694.5098571777344Q795.0806884765625 711.9598388671875 795.0806884765625 751.3399047851562V756.9799194335938Q795.0806884765625 819.6002197265625 770.9706115722656 862.9704284667969Q746.8605346679688 906.3406372070312 699.1803588867188 929.5507507324219Q651.5001831054688 952.7608642578125 580.5198974609375 952.7608642578125Q508.07958984375 952.7608642578125 455.7593994140625 930.28076171875Q403.439208984375 907.8006591796875 370.63909912109375 873.0905456542969Q337.8389892578125 838.3804321289062 321.81890869140625 800.2803955078125L114.80029296875 853.5005493164062Q152.94049072265625 954.0606079101562 223.9605712890625 1015.0704650878906Q294.98065185546875 1076.080322265625 386.8504943847656 1104.0401611328125Q478.7203369140625 1132 577.4998168945312 1132Q644.83935546875 1132 720.8391723632812 1115.8901062011719Q796.8389892578125 1099.7802124023438 863.698974609375 1057.9802856445312Q930.5589599609375 1016.1803588867188 972.7990112304688 939.8402709960938Q1015.0390625 863.5001831054688 1015.0390625 742.2197875976562V0H802.2205200195312V153.0799560546875H790.9404907226562Q769.2406005859375 109.7601318359375 726.2506408691406 68.80010986328125Q683.2606811523438 27.840087890625 617.5206298828125 1.6400146484375Q551.7805786132812 -24.56005859375 460.74041748046875 -24.56005859375ZM509.5596923828125 151.53924560546875Q599.840087890625 151.53924560546875 663.7102966308594 186.93939208984375Q727.5805053710938 222.33953857421875 761.6905822753906 279.979736328125Q795.8006591796875 337.61993408203125 795.8006591796875 402.56005859375V546.2205200195312Q783.9006958007812 534.48046875 750.320556640625 524.7904357910156Q716.7404174804688 515.1004028320312 674.1002197265625 507.640380859375Q631.4600219726562 500.18035888671875 591.099853515625 494.9503479003906Q550.7396850585938 489.7203369140625 525.0996704101562 486.54034423828125Q463.33953857421875 478.7203369140625 411.6993408203125 459.76031494140625Q360.05914306640625 440.80029296875 329.65899658203125 405.8201904296875Q299.25885009765625 370.840087890625 299.25885009765625 313.13983154296875Q299.25885009765625 259.9996337890625 326.5589599609375 224.14950561523438Q353.85906982421875 188.29937744140625 401.17926025390625 169.9193115234375Q448.49945068359375 151.53924560546875 509.5596923828125 151.53924560546875Z"/>
        <path transform="translate(11652 0)" d="M367.8787841796875 662.4403076171875V0H147.92041015625V1118H357.638916015625L359.89886474609375 844.3001098632812H337.23876953125Q385.89886474609375 994.2603149414062 478.7789306640625 1063.1301574707031Q571.6589965820312 1132 703.518798828125 1132Q817.5987548828125 1132 903.0487365722656 1084.1500549316406Q988.4987182617188 1036.3001098632812 1036.0887145996094 942.5301208496094Q1083.6787109375 848.7601318359375 1083.6787109375 710.3599853515625V0H863.7203369140625V682.9404907226562Q863.7203369140625 803.6608276367188 800.8101501464844 872.0710144042969Q737.8999633789062 940.481201171875 628.2796630859375 940.481201171875Q553.8594360351562 940.481201171875 494.8092346191406 907.9111022949219Q435.759033203125 875.3410034179688 401.81890869140625 813.2908020019531Q367.8787841796875 751.2406005859375 367.8787841796875 662.4403076171875Z"/>
        <path transform="translate(12884 0)" d="M133.34027099609375 -401.94012451171875 186.89996337890625 -222.54107666015625 211.8397216796875 -229.1610107421875Q268.81964111328125 -243.70098876953125 314.359619140625 -237.02099609375Q359.89959716796875 -230.34100341796875 393.37969970703125 -194.680908203125Q426.85980224609375 -159.02081298828125 446.840087890625 -87.1204833984375L471.10040283203125 -5.10003662109375L46.4403076171875 1118H283.93865966796875L505.1993408203125 482.53887939453125Q542.119384765625 376.5589599609375 566.5894470214844 271.9490661621094Q591.0595092773438 167.33917236328125 619.51953125 63.41949462890625H552.2595825195312Q580.7196044921875 167.33917236328125 607.3096008300781 272.5390625Q633.8995971679688 377.73895263671875 670.5396118164062 482.53887939453125L896.1401977539062 1118H1131.7385864257812L646.1383666992188 -155.30047607421875Q612.1383666992188 -244.66046142578125 562.7484436035156 -305.04034423828125Q513.3585205078125 -365.42022705078125 445.0487365722656 -395.7101135253906Q376.73895263671875 -426 286.57940673828125 -426Q234.799560546875 -426 194.039794921875 -418.46002197265625Q153.280029296875 -410.9200439453125 133.34027099609375 -401.94012451171875Z"/>
        <path transform="translate(14608 0)" d="M701.9390258789062 1118V939.1610107421875H20V1118ZM232.4403076171875 0V1245.9408569335938Q232.4403076171875 1350.320556640625 278.5702819824219 1420.0003662109375Q324.70025634765625 1489.68017578125 400.7601318359375 1524.840087890625Q476.82000732421875 1560 565.19970703125 1560Q631.5396118164062 1560 679.0293884277344 1549.2300109863281Q726.5191650390625 1538.4600219726562 749.0390625 1529.6400146484375L697.59912109375 1351.52099609375Q682.1591796875 1356.7009887695312 658.5792236328125 1362.3410034179688Q634.999267578125 1367.9810180664062 599.6991577148438 1367.9810180664062Q521.5589599609375 1367.9810180664062 486.798828125 1328.8108825683594Q452.0386962890625 1289.6407470703125 452.0386962890625 1216.0204467773438V0Z"/>
        <path transform="translate(15385 0)" d="M618.039794921875 -23.280029296875Q460.6400146484375 -23.280029296875 343.3501281738281 48.809967041015625Q226.06024169921875 120.89996337890625 161.25027465820312 250.80996704101562Q96.4403076171875 380.719970703125 96.4403076171875 552.719970703125Q96.4403076171875 727.1799926757812 161.25027465820312 857.5Q226.06024169921875 987.8200073242188 343.3501281738281 1059.9100036621094Q460.6400146484375 1132 618.039794921875 1132Q776.2595825195312 1132 893.7794799804688 1059.9100036621094Q1011.2993774414062 987.8200073242188 1076.1093444824219 857.5Q1140.9193115234375 727.1799926757812 1140.9193115234375 552.719970703125Q1140.9193115234375 380.719970703125 1076.1093444824219 250.80996704101562Q1011.2993774414062 120.89996337890625 893.7794799804688 48.809967041015625Q776.2595825195312 -23.280029296875 618.039794921875 -23.280029296875ZM618.039794921875 162.73895263671875Q720.0602416992188 162.73895263671875 786.6705017089844 216.2391357421875Q853.28076171875 269.73931884765625 885.5808715820312 358.47955322265625Q917.8809814453125 447.21978759765625 917.8809814453125 553.0799560546875Q917.8809814453125 659.9401245117188 885.5808715820312 749.2303771972656Q853.28076171875 838.5206298828125 786.6705017089844 892.2508239746094Q720.0602416992188 945.9810180664062 618.039794921875 945.9810180664062Q516.6593627929688 945.9810180664062 450.77911376953125 892.2508239746094Q384.89886474609375 838.5206298828125 352.5987548828125 749.640380859375Q320.29864501953125 660.7601318359375 320.29864501953125 553.0799560546875Q320.29864501953125 447.21978759765625 352.5987548828125 358.47955322265625Q384.89886474609375 269.73931884765625 450.77911376953125 216.2391357421875Q516.6593627929688 162.73895263671875 618.039794921875 162.73895263671875Z"/>
        <path transform="translate(16622 0)" d="M147.92041015625 0V1118H360.798828125V938.4403076171875H372.798828125Q403.61883544921875 1029.56005859375 480.7789306640625 1081.6000366210938Q557.9390258789062 1133.6400146484375 655.9591064453125 1133.6400146484375Q677.0390625 1133.6400146484375 704.2690734863281 1132.1000366210938Q731.4990844726562 1130.56005859375 748.9390258789062 1128.3001098632812V918.3212890625Q736.9791870117188 921.9412231445312 702.9092712402344 926.0312194824219Q668.83935546875 930.1212158203125 633.7393188476562 930.1212158203125Q557.5191650390625 930.1212158203125 496.9890441894531 897.8811645507812Q436.45892333984375 865.64111328125 402.1688537597656 809.1210327148438Q367.8787841796875 752.6009521484375 367.8787841796875 678.7608642578125V0Z"/>
        <path transform="translate(17960 0)" d="M629.7999267578125 -23.280029296875Q464.74005126953125 -23.280029296875 345.08013916015625 48.089996337890625Q225.42022705078125 119.46002197265625 160.93026733398438 248.46002197265625Q96.4403076171875 377.46002197265625 96.4403076171875 551.0799560546875Q96.4403076171875 723.2599487304688 159.79025268554688 853.9899597167969Q223.14019775390625 984.719970703125 339.0700988769531 1058.3599853515625Q455 1132 610.7798461914062 1132Q706.6195678710938 1132 795.9994506835938 1100.7000732421875Q885.3793334960938 1069.400146484375 956.3293151855469 1002.2802124023438Q1027.279296875 935.1602783203125 1068.7393188476562 828.3402709960938Q1110.1993408203125 721.520263671875 1110.1993408203125 570.3001098632812V492.240234375H218.80029296875V656.479736328125H996.8200073242188L894.1007690429688 602.2796630859375Q894.1007690429688 704.719970703125 862.2106628417969 783.2002563476562Q830.320556640625 861.6805419921875 767.5403442382812 905.8607177734375Q704.7601318359375 950.0408935546875 611.4998168945312 950.0408935546875Q518.239501953125 950.0408935546875 452.17926025390625 905.0407104492188Q386.1190185546875 860.04052734375 351.35888671875 786.4802856445312Q316.5987548828125 712.9200439453125 316.5987548828125 626.0598754882812V514.4403076171875Q316.5987548828125 399.43994140625 356.0888977050781 319.7796630859375Q395.57904052734375 240.119384765625 466.8692932128906 199.39923095703125Q538.1595458984375 158.6790771484375 632.0598754882812 158.6790771484375Q693.56005859375 158.6790771484375 743.8702087402344 176.32913208007812Q794.1803588867188 193.97918701171875 830.48046875 229.4193115234375Q866.7805786132812 264.85943603515625 886.16064453125 317.17962646484375L1092.559326171875 268.45965576171875Q1066.1993408203125 181.57977294921875 1002.5794067382812 115.86984252929688Q938.95947265625 50.159912109375 844.3995971679688 13.43994140625Q749.8397216796875 -23.280029296875 629.7999267578125 -23.280029296875Z"/>
        <path transform="translate(19163 0)" d="M57.4403076171875 0 495.5604248046875 658.83935546875 494.74041748046875 489.16064453125 79.90032958984375 1118H327.8787841796875L454.279296875 914.4994506835938Q506.29937744140625 829.7794799804688 545.5293884277344 752.8196411132812Q584.7593994140625 675.8598022460938 625.8594360351562 604.0799560546875H525.19970703125Q567.6597290039062 675.6798095703125 603.9696960449219 752.7296447753906Q640.2796630859375 829.7794799804688 693.6597290039062 914.4994506835938L823.4202270507812 1118H1066.6787109375L648.0386962890625 482.78057861328125V648.1792602539062L1083.958740234375 0H837.3402709960938L686.6597290039062 237.50054931640625Q634.919677734375 320.760498046875 596.0596923828125 396.0303039550781Q557.19970703125 471.30010986328125 516.3796997070312 540.6199340820312H617.8594360351562Q577.5794067382812 471.30010986328125 541.8594360351562 396.0303039550781Q506.13946533203125 320.760498046875 453.93939208984375 237.50054931640625L302.1588134765625 0Z"/>
        <path transform="translate(20304 0)" d="M629.7999267578125 -23.280029296875Q464.74005126953125 -23.280029296875 345.08013916015625 48.089996337890625Q225.42022705078125 119.46002197265625 160.93026733398438 248.46002197265625Q96.4403076171875 377.46002197265625 96.4403076171875 551.0799560546875Q96.4403076171875 723.2599487304688 159.79025268554688 853.9899597167969Q223.14019775390625 984.719970703125 339.0700988769531 1058.3599853515625Q455 1132 610.7798461914062 1132Q706.6195678710938 1132 795.9994506835938 1100.7000732421875Q885.3793334960938 1069.400146484375 956.3293151855469 1002.2802124023438Q1027.279296875 935.1602783203125 1068.7393188476562 828.3402709960938Q1110.1993408203125 721.520263671875 1110.1993408203125 570.3001098632812V492.240234375H218.80029296875V656.479736328125H996.8200073242188L894.1007690429688 602.2796630859375Q894.1007690429688 704.719970703125 862.2106628417969 783.2002563476562Q830.320556640625 861.6805419921875 767.5403442382812 905.8607177734375Q704.7601318359375 950.0408935546875 611.4998168945312 950.0408935546875Q518.239501953125 950.0408935546875 452.17926025390625 905.0407104492188Q386.1190185546875 860.04052734375 351.35888671875 786.4802856445312Q316.5987548828125 712.9200439453125 316.5987548828125 626.0598754882812V514.4403076171875Q316.5987548828125 399.43994140625 356.0888977050781 319.7796630859375Q395.57904052734375 240.119384765625 466.8692932128906 199.39923095703125Q538.1595458984375 158.6790771484375 632.0598754882812 158.6790771484375Q693.56005859375 158.6790771484375 743.8702087402344 176.32913208007812Q794.1803588867188 193.97918701171875 830.48046875 229.4193115234375Q866.7805786132812 264.85943603515625 886.16064453125 317.17962646484375L1092.559326171875 268.45965576171875Q1066.1993408203125 181.57977294921875 1002.5794067382812 115.86984252929688Q938.95947265625 50.159912109375 844.3995971679688 13.43994140625Q749.8397216796875 -23.280029296875 629.7999267578125 -23.280029296875Z"/>
        <path transform="translate(21507 0)" d="M617.8598022460938 -23.280029296875Q460.46002197265625 -23.280029296875 343.2601318359375 48.809967041015625Q226.06024169921875 120.89996337890625 161.25027465820312 250.80996704101562Q96.4403076171875 380.719970703125 96.4403076171875 552.719970703125Q96.4403076171875 727.1799926757812 161.25027465820312 857.5Q226.06024169921875 987.8200073242188 343.2601318359375 1059.9100036621094Q460.46002197265625 1132 617.8598022460938 1132Q705.1595458984375 1132 781.119384765625 1109.3800659179688Q857.0792236328125 1086.7601318359375 918.379150390625 1044.3802490234375Q979.6790771484375 1002.0003662109375 1022.319091796875 940.7205200195312Q1064.9591064453125 879.440673828125 1085.6192016601562 802.120849609375L877.3406372070312 752.0408935546875Q866.2406005859375 795.2208862304688 843.3105163574219 830.7709045410156Q820.3804321289062 866.3209228515625 787.6703186035156 892.1909484863281Q754.960205078125 918.0609741210938 712.4700622558594 932.02099609375Q669.9799194335938 945.9810180664062 618.9397583007812 945.9810180664062Q517.559326171875 945.9810180664062 451.49908447265625 892.6108093261719Q385.4388427734375 839.2406005859375 352.8687438964844 750.3603515625Q320.29864501953125 661.4801025390625 320.29864501953125 553.0799560546875Q320.29864501953125 446.49981689453125 352.8687438964844 357.8495788574219Q385.4388427734375 269.1993408203125 451.49908447265625 215.96914672851562Q517.559326171875 162.73895263671875 618.9397583007812 162.73895263671875Q670.7999267578125 162.73895263671875 714.1100769042969 177.198974609375Q757.4202270507812 191.65899658203125 791.0403442382812 218.43902587890625Q824.6604614257812 245.21905517578125 847.5905456542969 282.6790771484375Q870.5206298828125 320.13909912109375 881.440673828125 365.13909912109375L1088.8992309570312 315.2391357421875Q1069.0591430664062 235.73931884765625 1026.0091247558594 173.45947265625Q982.9591064453125 111.17962646484375 921.3391723632812 66.979736328125Q859.71923828125 22.77984619140625 782.8493957519531 -0.250091552734375Q705.9795532226562 -23.280029296875 617.8598022460938 -23.280029296875Z"/>
        <path transform="translate(22689 0)" d="M528.9003295898438 -14Q415.0003662109375 -14 329.0503845214844 33.849945068359375Q243.10040283203125 81.69989013671875 195.51040649414062 175.8798828125Q147.92041015625 270.05987548828125 147.92041015625 407.6400146484375V1118H367.8787841796875V435.05950927734375Q367.8787841796875 314.33917236328125 431.198974609375 245.92898559570312Q494.5191650390625 177.518798828125 604.1394653320312 177.518798828125Q678.7396850585938 177.518798828125 737.2898864746094 210.08889770507812Q795.840087890625 242.65899658203125 829.7802124023438 305.2091979980469Q863.7203369140625 367.7593994140625 863.7203369140625 455.5596923828125V1118H1084.4987182617188V0H873.960205078125L872.520263671875 273.69989013671875H894.3603515625Q844.8802490234375 122.09967041015625 751.18017578125 54.049835205078125Q657.4801025390625 -14 528.9003295898438 -14Z"/>
        <path transform="translate(23921 0)" d="M626.4388427734375 1118V939.1610107421875H20V1118ZM183.3201904296875 1384H403.278564453125V302.41949462890625Q403.278564453125 234.61920166015625 431.5286560058594 203.1790771484375Q459.77874755859375 171.73895263671875 525.198974609375 171.73895263671875Q542.3789672851562 171.73895263671875 570.3189086914062 175.82894897460938Q598.2588500976562 179.9189453125 618.2789306640625 183.9189453125L657.2588500976562 7.61993408203125Q621.879150390625 -4 581.7893371582031 -9.269989013671875Q541.6995239257812 -14.53997802734375 503.2796630859375 -14.53997802734375Q350.53997802734375 -14.53997802734375 266.9300842285156 63.669952392578125Q183.3201904296875 141.8798828125 183.3201904296875 284.2796630859375Z"/>
        <path transform="translate(24618 0)" d="M147.92041015625 0V1118H367.8787841796875V0ZM258.53961181640625 1288.5805053710938Q201.9598388671875 1288.5805053710938 161.17999267578125 1327.009951619707Q120.400146484375 1365.4393978683202 120.400146484375 1419.2406226163785Q120.400146484375 1474.1398315429688 161.17999267578125 1512.0596923828125Q201.9598388671875 1549.9795532226562 258.53961181640625 1549.9795532226562Q315.8879656110491 1549.9795532226562 356.6935250418527 1512.0789773123606Q397.49908447265625 1474.1784014020648 397.49908447265625 1419.2500305175781Q397.49908447265625 1365.4202270507812 356.6935250418527 1327.0003662109375Q315.8879656110491 1288.5805053710938 258.53961181640625 1288.5805053710938Z"/>
        <path transform="translate(25134 0)" d="M468.22052001953125 0 46.4403076171875 1118H283.93865966796875L505.1993408203125 482.53887939453125Q542.119384765625 377.73895263671875 568.2593994140625 272.35906982421875Q594.3994140625 166.97918701171875 622.679443359375 63.41949462890625H557.2194213867188Q585.3194580078125 166.97918701171875 611.3694763183594 272.2690734863281Q637.4194946289062 377.5589599609375 673.3395385742188 482.53887939453125L893.8802490234375 1118H1130.2986450195312L708.158447265625 0Z"/>
        <path transform="translate(26311 0)" d="M629.7999267578125 -23.280029296875Q464.74005126953125 -23.280029296875 345.08013916015625 48.089996337890625Q225.42022705078125 119.46002197265625 160.93026733398438 248.46002197265625Q96.4403076171875 377.46002197265625 96.4403076171875 551.0799560546875Q96.4403076171875 723.2599487304688 159.79025268554688 853.9899597167969Q223.14019775390625 984.719970703125 339.0700988769531 1058.3599853515625Q455 1132 610.7798461914062 1132Q706.6195678710938 1132 795.9994506835938 1100.7000732421875Q885.3793334960938 1069.400146484375 956.3293151855469 1002.2802124023438Q1027.279296875 935.1602783203125 1068.7393188476562 828.3402709960938Q1110.1993408203125 721.520263671875 1110.1993408203125 570.3001098632812V492.240234375H218.80029296875V656.479736328125H996.8200073242188L894.1007690429688 602.2796630859375Q894.1007690429688 704.719970703125 862.2106628417969 783.2002563476562Q830.320556640625 861.6805419921875 767.5403442382812 905.8607177734375Q704.7601318359375 950.0408935546875 611.4998168945312 950.0408935546875Q518.239501953125 950.0408935546875 452.17926025390625 905.0407104492188Q386.1190185546875 860.04052734375 351.35888671875 786.4802856445312Q316.5987548828125 712.9200439453125 316.5987548828125 626.0598754882812V514.4403076171875Q316.5987548828125 399.43994140625 356.0888977050781 319.7796630859375Q395.57904052734375 240.119384765625 466.8692932128906 199.39923095703125Q538.1595458984375 158.6790771484375 632.0598754882812 158.6790771484375Q693.56005859375 158.6790771484375 743.8702087402344 176.32913208007812Q794.1803588867188 193.97918701171875 830.48046875 229.4193115234375Q866.7805786132812 264.85943603515625 886.16064453125 317.17962646484375L1092.559326171875 268.45965576171875Q1066.1993408203125 181.57977294921875 1002.5794067382812 115.86984252929688Q938.95947265625 50.159912109375 844.3995971679688 13.43994140625Q749.8397216796875 -23.280029296875 629.7999267578125 -23.280029296875Z"/>
        <path transform="translate(28060 0)" d="M563.5005493164062 -22.2000732421875Q428.10040283203125 -22.2000732421875 322.2703552246094 47.269989013671875Q216.4403076171875 116.74005126953125 156.4403076171875 246.2000732421875Q96.4403076171875 375.66009521484375 96.4403076171875 556.3599853515625Q96.4403076171875 738.039794921875 157.39028930664062 866.9998168945312Q218.34027099609375 995.9598388671875 324.080322265625 1063.9799194335938Q429.82037353515625 1132 563.6005859375 1132Q667.9207763671875 1132 731.6507873535156 1097.3499450683594Q795.3807983398438 1062.6998901367188 831.3207397460938 1016.7499084472656Q867.2606811523438 970.7999267578125 885.8006591796875 935.9401245117188H898.3607177734375V1490H1118.319091796875V0H904.000732421875V174.97991943359375H885.8006591796875Q866.9006958007812 139.30010986328125 830.0507507324219 93.16009521484375Q793.2008056640625 47.02008056640625 729.3307800292969 12.410003662109375Q665.4607543945312 -22.2000732421875 563.5005493164062 -22.2000732421875ZM612.2796630859375 165.25885009765625Q705.8200073242188 165.25885009765625 770.4202270507812 214.97900390625Q835.0204467773438 264.69915771484375 868.4105529785156 353.21942138671875Q901.8006591796875 441.73968505859375 901.8006591796875 558Q901.8006591796875 674.6203002929688 868.820556640625 761.1805419921875Q835.8404541015625 847.7407836914062 771.240234375 896.1409301757812Q706.6400146484375 944.5410766601562 612.2796630859375 944.5410766601562Q515.4592895507812 944.5410766601562 450.6290588378906 893.680908203125Q385.798828125 842.8207397460938 353.4087219238281 755.4404907226562Q321.01861572265625 668.0602416992188 321.01861572265625 558Q321.01861572265625 447.29974365234375 353.8187255859375 358.27947998046875Q386.61883544921875 269.25921630859375 451.85906982421875 217.259033203125Q517.0993041992188 165.25885009765625 612.2796630859375 165.25885009765625Z"/>
        <path transform="translate(29326 0)" d="M147.92041015625 0V1118H367.8787841796875V0ZM258.53961181640625 1288.5805053710938Q201.9598388671875 1288.5805053710938 161.17999267578125 1327.009951619707Q120.400146484375 1365.4393978683202 120.400146484375 1419.2406226163785Q120.400146484375 1474.1398315429688 161.17999267578125 1512.0596923828125Q201.9598388671875 1549.9795532226562 258.53961181640625 1549.9795532226562Q315.8879656110491 1549.9795532226562 356.6935250418527 1512.0789773123606Q397.49908447265625 1474.1784014020648 397.49908447265625 1419.2500305175781Q397.49908447265625 1365.4202270507812 356.6935250418527 1327.0003662109375Q315.8879656110491 1288.5805053710938 258.53961181640625 1288.5805053710938Z"/>
        <path transform="translate(29842 0)" d="M460.74041748046875 -24.56005859375Q354.5604248046875 -24.56005859375 268.7803955078125 14.629974365234375Q183.0003662109375 53.82000732421875 132.90032958984375 129.9200439453125Q82.80029296875 206.02008056640625 82.80029296875 316.2000732421875Q82.80029296875 411.4801025390625 119.54034423828125 472.38006591796875Q156.2803955078125 533.280029296875 218.43045043945312 569.0399780273438Q280.58050537109375 604.7999267578125 357.1305236816406 622.7898864746094Q433.6805419921875 640.7798461914062 513.3004760742188 650.0598754882812Q612.2205200195312 661.9799194335938 674.0505676269531 669.5198974609375Q735.880615234375 677.0598754882812 765.4806518554688 694.5098571777344Q795.0806884765625 711.9598388671875 795.0806884765625 751.3399047851562V756.9799194335938Q795.0806884765625 819.6002197265625 770.9706115722656 862.9704284667969Q746.8605346679688 906.3406372070312 699.1803588867188 929.5507507324219Q651.5001831054688 952.7608642578125 580.5198974609375 952.7608642578125Q508.07958984375 952.7608642578125 455.7593994140625 930.28076171875Q403.439208984375 907.8006591796875 370.63909912109375 873.0905456542969Q337.8389892578125 838.3804321289062 321.81890869140625 800.2803955078125L114.80029296875 853.5005493164062Q152.94049072265625 954.0606079101562 223.9605712890625 1015.0704650878906Q294.98065185546875 1076.080322265625 386.8504943847656 1104.0401611328125Q478.7203369140625 1132 577.4998168945312 1132Q644.83935546875 1132 720.8391723632812 1115.8901062011719Q796.8389892578125 1099.7802124023438 863.698974609375 1057.9802856445312Q930.5589599609375 1016.1803588867188 972.7990112304688 939.8402709960938Q1015.0390625 863.5001831054688 1015.0390625 742.2197875976562V0H802.2205200195312V153.0799560546875H790.9404907226562Q769.2406005859375 109.7601318359375 726.2506408691406 68.80010986328125Q683.2606811523438 27.840087890625 617.5206298828125 1.6400146484375Q551.7805786132812 -24.56005859375 460.74041748046875 -24.56005859375ZM509.5596923828125 151.53924560546875Q599.840087890625 151.53924560546875 663.7102966308594 186.93939208984375Q727.5805053710938 222.33953857421875 761.6905822753906 279.979736328125Q795.8006591796875 337.61993408203125 795.8006591796875 402.56005859375V546.2205200195312Q783.9006958007812 534.48046875 750.320556640625 524.7904357910156Q716.7404174804688 515.1004028320312 674.1002197265625 507.640380859375Q631.4600219726562 500.18035888671875 591.099853515625 494.9503479003906Q550.7396850585938 489.7203369140625 525.0996704101562 486.54034423828125Q463.33953857421875 478.7203369140625 411.6993408203125 459.76031494140625Q360.05914306640625 440.80029296875 329.65899658203125 405.8201904296875Q299.25885009765625 370.840087890625 299.25885009765625 313.13983154296875Q299.25885009765625 259.9996337890625 326.5589599609375 224.14950561523438Q353.85906982421875 188.29937744140625 401.17926025390625 169.9193115234375Q448.49945068359375 151.53924560546875 509.5596923828125 151.53924560546875Z"/>
        <path transform="translate(31005 0)" d="M615.4998168945312 -442Q486.280029296875 -442 391.3702087402344 -409.24005126953125Q296.46038818359375 -376.4801025390625 234.75045776367188 -321.1502380371094Q173.04052734375 -265.82037353515625 141.46038818359375 -198.5206298828125L324.7188720703125 -112.080322265625Q345.47900390625 -143.7203369140625 378.9090881347656 -179.57046508789062Q412.33917236328125 -215.42059326171875 468.9693298339844 -240.04071044921875Q525.5994873046875 -264.66082763671875 615.1398315429688 -264.66082763671875Q742.6600952148438 -264.66082763671875 822.2303771972656 -204.440673828125Q901.8006591796875 -144.22052001953125 901.8006591796875 -15.22015380859375V202.66009521484375H882.6407470703125Q863.28076171875 166.34027099609375 827.6108093261719 123.06024169921875Q791.9408569335938 79.78021240234375 728.4308166503906 48.530120849609375Q664.9207763671875 17.280029296875 562.6805419921875 17.280029296875Q431.38043212890625 17.280029296875 325.640380859375 79.340087890625Q219.90032958984375 141.400146484375 158.17031860351562 263.0401611328125Q96.4403076171875 384.68017578125 96.4403076171875 562.9200439453125Q96.4403076171875 741.31982421875 157.89028930664062 868.6398315429688Q219.34027099609375 995.9598388671875 325.4903259277344 1063.9799194335938Q431.640380859375 1132 565.6005859375 1132Q669.1007690429688 1132 733.3307800292969 1097.7599487304688Q797.560791015625 1063.5198974609375 834.0907287597656 1017.159912109375Q870.6206665039062 970.7999267578125 890.16064453125 935.9401245117188H905.5407104492188V1118H1120.6790771484375V-16.22052001953125Q1120.6790771484375 -162.5604248046875 1054.1491394042969 -257.0303039550781Q987.6192016601562 -351.50018310546875 873.2493591308594 -396.7500915527344Q758.8795166015625 -442 615.4998168945312 -442ZM613.919677734375 199.9591064453125Q707.6400146484375 199.9591064453125 772.1502380371094 243.5792236328125Q836.6604614257812 287.1993408203125 870.0505676269531 369.3895568847656Q903.440673828125 451.57977294921875 903.440673828125 566.2000732421875Q903.440673828125 678.7203369140625 870.4605712890625 763.6405639648438Q837.48046875 848.560791015625 772.9702453613281 896.5509338378906Q708.4600219726562 944.5410766601562 613.919677734375 944.5410766601562Q517.0993041992188 944.5410766601562 451.85906982421875 894.0909118652344Q386.61883544921875 843.6407470703125 353.8187255859375 758.3105163574219Q321.01861572265625 672.9802856445312 321.01861572265625 566.2000732421875Q321.01861572265625 457.13983154296875 354.2287292480469 374.53961181640625Q387.4388427734375 291.93939208984375 452.6790771484375 245.94924926757812Q517.9193115234375 199.9591064453125 613.919677734375 199.9591064453125Z"/>
        <path transform="translate(32274 0)" d="M367.8787841796875 662.4403076171875V0H147.92041015625V1118H357.638916015625L359.89886474609375 844.3001098632812H337.23876953125Q385.89886474609375 994.2603149414062 478.7789306640625 1063.1301574707031Q571.6589965820312 1132 703.518798828125 1132Q817.5987548828125 1132 903.0487365722656 1084.1500549316406Q988.4987182617188 1036.3001098632812 1036.0887145996094 942.5301208496094Q1083.6787109375 848.7601318359375 1083.6787109375 710.3599853515625V0H863.7203369140625V682.9404907226562Q863.7203369140625 803.6608276367188 800.8101501464844 872.0710144042969Q737.8999633789062 940.481201171875 628.2796630859375 940.481201171875Q553.8594360351562 940.481201171875 494.8092346191406 907.9111022949219Q435.759033203125 875.3410034179688 401.81890869140625 813.2908020019531Q367.8787841796875 751.2406005859375 367.8787841796875 662.4403076171875Z"/>
        <path transform="translate(33506 0)" d="M618.039794921875 -23.280029296875Q460.6400146484375 -23.280029296875 343.3501281738281 48.809967041015625Q226.06024169921875 120.89996337890625 161.25027465820312 250.80996704101562Q96.4403076171875 380.719970703125 96.4403076171875 552.719970703125Q96.4403076171875 727.1799926757812 161.25027465820312 857.5Q226.06024169921875 987.8200073242188 343.3501281738281 1059.9100036621094Q460.6400146484375 1132 618.039794921875 1132Q776.2595825195312 1132 893.7794799804688 1059.9100036621094Q1011.2993774414062 987.8200073242188 1076.1093444824219 857.5Q1140.9193115234375 727.1799926757812 1140.9193115234375 552.719970703125Q1140.9193115234375 380.719970703125 1076.1093444824219 250.80996704101562Q1011.2993774414062 120.89996337890625 893.7794799804688 48.809967041015625Q776.2595825195312 -23.280029296875 618.039794921875 -23.280029296875ZM618.039794921875 162.73895263671875Q720.0602416992188 162.73895263671875 786.6705017089844 216.2391357421875Q853.28076171875 269.73931884765625 885.5808715820312 358.47955322265625Q917.8809814453125 447.21978759765625 917.8809814453125 553.0799560546875Q917.8809814453125 659.9401245117188 885.5808715820312 749.2303771972656Q853.28076171875 838.5206298828125 786.6705017089844 892.2508239746094Q720.0602416992188 945.9810180664062 618.039794921875 945.9810180664062Q516.6593627929688 945.9810180664062 450.77911376953125 892.2508239746094Q384.89886474609375 838.5206298828125 352.5987548828125 749.640380859375Q320.29864501953125 660.7601318359375 320.29864501953125 553.0799560546875Q320.29864501953125 447.21978759765625 352.5987548828125 358.47955322265625Q384.89886474609375 269.73931884765625 450.77911376953125 216.2391357421875Q516.6593627929688 162.73895263671875 618.039794921875 162.73895263671875Z"/>
        <path transform="translate(34743 0)" d="M549.3395385742188 -23.280029296875Q427.6798095703125 -23.280029296875 333.32000732421875 11.929901123046875Q238.960205078125 47.13983154296875 178.35031127929688 115.56973266601562Q117.74041748046875 183.9996337890625 97.92041015625 282.51953125L305.09893798828125 325.85943603515625Q328.37896728515625 238.53924560546875 391.0091247558594 196.88919067382812Q453.6392822265625 155.2391357421875 550.9393920898438 155.2391357421875Q657.4998168945312 155.2391357421875 720.4300842285156 199.4793701171875Q783.3603515625 243.7196044921875 783.3603515625 306.41986083984375Q783.3603515625 359.74005126953125 744.5702819824219 394.7301940917969Q705.7802124023438 429.7203369140625 625.840087890625 447.46038818359375L437.68017578125 490.02044677734375Q282.4403076171875 525.1204833984375 206.46038818359375 601.8804321289062Q130.48046875 678.640380859375 130.48046875 799.1602783203125Q130.48046875 898.9401245117188 186.01040649414062 973.7900695800781Q241.54034423828125 1048.6400146484375 339.00018310546875 1090.3200073242188Q436.46002197265625 1132 562.8397216796875 1132Q683.7794799804688 1132 769.7692565917969 1096.780029296875Q855.759033203125 1061.56005859375 909.3189086914062 998.9901428222656Q962.8787841796875 936.4202270507812 986.4388427734375 853.2803955078125L789.0602416992188 809.6604614257812Q767.8601684570312 868.760498046875 716.0700988769531 913.5306701660156Q664.280029296875 958.3008422851562 565.0996704101562 958.3008422851562Q473.73931884765625 958.3008422851562 412.7290954589844 917.2506408691406Q351.7188720703125 876.200439453125 351.7188720703125 812.5001831054688Q351.7188720703125 757.159912109375 392.4890441894531 722.4497985839844Q433.25921630859375 687.7396850585938 524.95947265625 666.8995971679688L704.5790405273438 626.8995971679688Q859.9989013671875 591.9795532226562 935.0688171386719 516.7495422363281Q1010.1387329101562 441.51953125 1010.1387329101562 324.89959716796875Q1010.1387329101562 222.93975830078125 951.7588500976562 144.4598388671875Q893.3789672851562 65.97991943359375 789.4691467285156 21.349945068359375Q685.559326171875 -23.280029296875 549.3395385742188 -23.280029296875Z"/>
        <path transform="translate(35846 0)" d="M626.4388427734375 1118V939.1610107421875H20V1118ZM183.3201904296875 1384H403.278564453125V302.41949462890625Q403.278564453125 234.61920166015625 431.5286560058594 203.1790771484375Q459.77874755859375 171.73895263671875 525.198974609375 171.73895263671875Q542.3789672851562 171.73895263671875 570.3189086914062 175.82894897460938Q598.2588500976562 179.9189453125 618.2789306640625 183.9189453125L657.2588500976562 7.61993408203125Q621.879150390625 -4 581.7893371582031 -9.269989013671875Q541.6995239257812 -14.53997802734375 503.2796630859375 -14.53997802734375Q350.53997802734375 -14.53997802734375 266.9300842285156 63.669952392578125Q183.3201904296875 141.8798828125 183.3201904296875 284.2796630859375Z"/>
        <path transform="translate(36543 0)" d="M147.92041015625 0V1118H367.8787841796875V0ZM258.53961181640625 1288.5805053710938Q201.9598388671875 1288.5805053710938 161.17999267578125 1327.009951619707Q120.400146484375 1365.4393978683202 120.400146484375 1419.2406226163785Q120.400146484375 1474.1398315429688 161.17999267578125 1512.0596923828125Q201.9598388671875 1549.9795532226562 258.53961181640625 1549.9795532226562Q315.8879656110491 1549.9795532226562 356.6935250418527 1512.0789773123606Q397.49908447265625 1474.1784014020648 397.49908447265625 1419.2500305175781Q397.49908447265625 1365.4202270507812 356.6935250418527 1327.0003662109375Q315.8879656110491 1288.5805053710938 258.53961181640625 1288.5805053710938Z"/>
        <path transform="translate(37059 0)" d="M617.8598022460938 -23.280029296875Q460.46002197265625 -23.280029296875 343.2601318359375 48.809967041015625Q226.06024169921875 120.89996337890625 161.25027465820312 250.80996704101562Q96.4403076171875 380.719970703125 96.4403076171875 552.719970703125Q96.4403076171875 727.1799926757812 161.25027465820312 857.5Q226.06024169921875 987.8200073242188 343.2601318359375 1059.9100036621094Q460.46002197265625 1132 617.8598022460938 1132Q705.1595458984375 1132 781.119384765625 1109.3800659179688Q857.0792236328125 1086.7601318359375 918.379150390625 1044.3802490234375Q979.6790771484375 1002.0003662109375 1022.319091796875 940.7205200195312Q1064.9591064453125 879.440673828125 1085.6192016601562 802.120849609375L877.3406372070312 752.0408935546875Q866.2406005859375 795.2208862304688 843.3105163574219 830.7709045410156Q820.3804321289062 866.3209228515625 787.6703186035156 892.1909484863281Q754.960205078125 918.0609741210938 712.4700622558594 932.02099609375Q669.9799194335938 945.9810180664062 618.9397583007812 945.9810180664062Q517.559326171875 945.9810180664062 451.49908447265625 892.6108093261719Q385.4388427734375 839.2406005859375 352.8687438964844 750.3603515625Q320.29864501953125 661.4801025390625 320.29864501953125 553.0799560546875Q320.29864501953125 446.49981689453125 352.8687438964844 357.8495788574219Q385.4388427734375 269.1993408203125 451.49908447265625 215.96914672851562Q517.559326171875 162.73895263671875 618.9397583007812 162.73895263671875Q670.7999267578125 162.73895263671875 714.1100769042969 177.198974609375Q757.4202270507812 191.65899658203125 791.0403442382812 218.43902587890625Q824.6604614257812 245.21905517578125 847.5905456542969 282.6790771484375Q870.5206298828125 320.13909912109375 881.440673828125 365.13909912109375L1088.8992309570312 315.2391357421875Q1069.0591430664062 235.73931884765625 1026.0091247558594 173.45947265625Q982.9591064453125 111.17962646484375 921.3391723632812 66.979736328125Q859.71923828125 22.77984619140625 782.8493957519531 -0.250091552734375Q705.9795532226562 -23.280029296875 617.8598022460938 -23.280029296875Z"/>
        <path transform="translate(38241 0)" d="M549.3395385742188 -23.280029296875Q427.6798095703125 -23.280029296875 333.32000732421875 11.929901123046875Q238.960205078125 47.13983154296875 178.35031127929688 115.56973266601562Q117.74041748046875 183.9996337890625 97.92041015625 282.51953125L305.09893798828125 325.85943603515625Q328.37896728515625 238.53924560546875 391.0091247558594 196.88919067382812Q453.6392822265625 155.2391357421875 550.9393920898438 155.2391357421875Q657.4998168945312 155.2391357421875 720.4300842285156 199.4793701171875Q783.3603515625 243.7196044921875 783.3603515625 306.41986083984375Q783.3603515625 359.74005126953125 744.5702819824219 394.7301940917969Q705.7802124023438 429.7203369140625 625.840087890625 447.46038818359375L437.68017578125 490.02044677734375Q282.4403076171875 525.1204833984375 206.46038818359375 601.8804321289062Q130.48046875 678.640380859375 130.48046875 799.1602783203125Q130.48046875 898.9401245117188 186.01040649414062 973.7900695800781Q241.54034423828125 1048.6400146484375 339.00018310546875 1090.3200073242188Q436.46002197265625 1132 562.8397216796875 1132Q683.7794799804688 1132 769.7692565917969 1096.780029296875Q855.759033203125 1061.56005859375 909.3189086914062 998.9901428222656Q962.8787841796875 936.4202270507812 986.4388427734375 853.2803955078125L789.0602416992188 809.6604614257812Q767.8601684570312 868.760498046875 716.0700988769531 913.5306701660156Q664.280029296875 958.3008422851562 565.0996704101562 958.3008422851562Q473.73931884765625 958.3008422851562 412.7290954589844 917.2506408691406Q351.7188720703125 876.200439453125 351.7188720703125 812.5001831054688Q351.7188720703125 757.159912109375 392.4890441894531 722.4497985839844Q433.25921630859375 687.7396850585938 524.95947265625 666.8995971679688L704.5790405273438 626.8995971679688Q859.9989013671875 591.9795532226562 935.0688171386719 516.7495422363281Q1010.1387329101562 441.51953125 1010.1387329101562 324.89959716796875Q1010.1387329101562 222.93975830078125 951.7588500976562 144.4598388671875Q893.3789672851562 65.97991943359375 789.4691467285156 21.349945068359375Q685.559326171875 -23.280029296875 549.3395385742188 -23.280029296875Z"/>
        <path transform="translate(39890 0)" d="M804.6597290039062 723.4998168945312V533.0208129882812H142.74005126953125V723.4998168945312Z"/>
        <path transform="translate(41383 0)" d="M563.5005493164062 -22.2000732421875Q428.10040283203125 -22.2000732421875 322.2703552246094 47.269989013671875Q216.4403076171875 116.74005126953125 156.4403076171875 246.2000732421875Q96.4403076171875 375.66009521484375 96.4403076171875 556.3599853515625Q96.4403076171875 738.039794921875 157.39028930664062 866.9998168945312Q218.34027099609375 995.9598388671875 324.080322265625 1063.9799194335938Q429.82037353515625 1132 563.6005859375 1132Q667.9207763671875 1132 731.6507873535156 1097.3499450683594Q795.3807983398438 1062.6998901367188 831.3207397460938 1016.7499084472656Q867.2606811523438 970.7999267578125 885.8006591796875 935.9401245117188H898.3607177734375V1490H1118.319091796875V0H904.000732421875V174.97991943359375H885.8006591796875Q866.9006958007812 139.30010986328125 830.0507507324219 93.16009521484375Q793.2008056640625 47.02008056640625 729.3307800292969 12.410003662109375Q665.4607543945312 -22.2000732421875 563.5005493164062 -22.2000732421875ZM612.2796630859375 165.25885009765625Q705.8200073242188 165.25885009765625 770.4202270507812 214.97900390625Q835.0204467773438 264.69915771484375 868.4105529785156 353.21942138671875Q901.8006591796875 441.73968505859375 901.8006591796875 558Q901.8006591796875 674.6203002929688 868.820556640625 761.1805419921875Q835.8404541015625 847.7407836914062 771.240234375 896.1409301757812Q706.6400146484375 944.5410766601562 612.2796630859375 944.5410766601562Q515.4592895507812 944.5410766601562 450.6290588378906 893.680908203125Q385.798828125 842.8207397460938 353.4087219238281 755.4404907226562Q321.01861572265625 668.0602416992188 321.01861572265625 558Q321.01861572265625 447.29974365234375 353.8187255859375 358.27947998046875Q386.61883544921875 269.25921630859375 451.85906982421875 217.259033203125Q517.0993041992188 165.25885009765625 612.2796630859375 165.25885009765625Z"/>
        <path transform="translate(42649 0)" d="M629.7999267578125 -23.280029296875Q464.74005126953125 -23.280029296875 345.08013916015625 48.089996337890625Q225.42022705078125 119.46002197265625 160.93026733398438 248.46002197265625Q96.4403076171875 377.46002197265625 96.4403076171875 551.0799560546875Q96.4403076171875 723.2599487304688 159.79025268554688 853.9899597167969Q223.14019775390625 984.719970703125 339.0700988769531 1058.3599853515625Q455 1132 610.7798461914062 1132Q706.6195678710938 1132 795.9994506835938 1100.7000732421875Q885.3793334960938 1069.400146484375 956.3293151855469 1002.2802124023438Q1027.279296875 935.1602783203125 1068.7393188476562 828.3402709960938Q1110.1993408203125 721.520263671875 1110.1993408203125 570.3001098632812V492.240234375H218.80029296875V656.479736328125H996.8200073242188L894.1007690429688 602.2796630859375Q894.1007690429688 704.719970703125 862.2106628417969 783.2002563476562Q830.320556640625 861.6805419921875 767.5403442382812 905.8607177734375Q704.7601318359375 950.0408935546875 611.4998168945312 950.0408935546875Q518.239501953125 950.0408935546875 452.17926025390625 905.0407104492188Q386.1190185546875 860.04052734375 351.35888671875 786.4802856445312Q316.5987548828125 712.9200439453125 316.5987548828125 626.0598754882812V514.4403076171875Q316.5987548828125 399.43994140625 356.0888977050781 319.7796630859375Q395.57904052734375 240.119384765625 466.8692932128906 199.39923095703125Q538.1595458984375 158.6790771484375 632.0598754882812 158.6790771484375Q693.56005859375 158.6790771484375 743.8702087402344 176.32913208007812Q794.1803588867188 193.97918701171875 830.48046875 229.4193115234375Q866.7805786132812 264.85943603515625 886.16064453125 317.17962646484375L1092.559326171875 268.45965576171875Q1066.1993408203125 181.57977294921875 1002.5794067382812 115.86984252929688Q938.95947265625 50.159912109375 844.3995971679688 13.43994140625Q749.8397216796875 -23.280029296875 629.7999267578125 -23.280029296875Z"/>
        <path transform="translate(43852 0)" d="M468.22052001953125 0 46.4403076171875 1118H283.93865966796875L505.1993408203125 482.53887939453125Q542.119384765625 377.73895263671875 568.2593994140625 272.35906982421875Q594.3994140625 166.97918701171875 622.679443359375 63.41949462890625H557.2194213867188Q585.3194580078125 166.97918701171875 611.3694763183594 272.2690734863281Q637.4194946289062 377.5589599609375 673.3395385742188 482.53887939453125L893.8802490234375 1118H1130.2986450195312L708.158447265625 0Z"/>
        <path transform="translate(45029 0)" d="M629.7999267578125 -23.280029296875Q464.74005126953125 -23.280029296875 345.08013916015625 48.089996337890625Q225.42022705078125 119.46002197265625 160.93026733398438 248.46002197265625Q96.4403076171875 377.46002197265625 96.4403076171875 551.0799560546875Q96.4403076171875 723.2599487304688 159.79025268554688 853.9899597167969Q223.14019775390625 984.719970703125 339.0700988769531 1058.3599853515625Q455 1132 610.7798461914062 1132Q706.6195678710938 1132 795.9994506835938 1100.7000732421875Q885.3793334960938 1069.400146484375 956.3293151855469 1002.2802124023438Q1027.279296875 935.1602783203125 1068.7393188476562 828.3402709960938Q1110.1993408203125 721.520263671875 1110.1993408203125 570.3001098632812V492.240234375H218.80029296875V656.479736328125H996.8200073242188L894.1007690429688 602.2796630859375Q894.1007690429688 704.719970703125 862.2106628417969 783.2002563476562Q830.320556640625 861.6805419921875 767.5403442382812 905.8607177734375Q704.7601318359375 950.0408935546875 611.4998168945312 950.0408935546875Q518.239501953125 950.0408935546875 452.17926025390625 905.0407104492188Q386.1190185546875 860.04052734375 351.35888671875 786.4802856445312Q316.5987548828125 712.9200439453125 316.5987548828125 626.0598754882812V514.4403076171875Q316.5987548828125 399.43994140625 356.0888977050781 319.7796630859375Q395.57904052734375 240.119384765625 466.8692932128906 199.39923095703125Q538.1595458984375 158.6790771484375 632.0598754882812 158.6790771484375Q693.56005859375 158.6790771484375 743.8702087402344 176.32913208007812Q794.1803588867188 193.97918701171875 830.48046875 229.4193115234375Q866.7805786132812 264.85943603515625 886.16064453125 317.17962646484375L1092.559326171875 268.45965576171875Q1066.1993408203125 181.57977294921875 1002.5794067382812 115.86984252929688Q938.95947265625 50.159912109375 844.3995971679688 13.43994140625Q749.8397216796875 -23.280029296875 629.7999267578125 -23.280029296875Z"/>
        <path transform="translate(46232 0)" d="M367.8787841796875 1490V0H147.92041015625V1490Z"/>
        <path transform="translate(46748 0)" d="M618.039794921875 -23.280029296875Q460.6400146484375 -23.280029296875 343.3501281738281 48.809967041015625Q226.06024169921875 120.89996337890625 161.25027465820312 250.80996704101562Q96.4403076171875 380.719970703125 96.4403076171875 552.719970703125Q96.4403076171875 727.1799926757812 161.25027465820312 857.5Q226.06024169921875 987.8200073242188 343.3501281738281 1059.9100036621094Q460.6400146484375 1132 618.039794921875 1132Q776.2595825195312 1132 893.7794799804688 1059.9100036621094Q1011.2993774414062 987.8200073242188 1076.1093444824219 857.5Q1140.9193115234375 727.1799926757812 1140.9193115234375 552.719970703125Q1140.9193115234375 380.719970703125 1076.1093444824219 250.80996704101562Q1011.2993774414062 120.89996337890625 893.7794799804688 48.809967041015625Q776.2595825195312 -23.280029296875 618.039794921875 -23.280029296875ZM618.039794921875 162.73895263671875Q720.0602416992188 162.73895263671875 786.6705017089844 216.2391357421875Q853.28076171875 269.73931884765625 885.5808715820312 358.47955322265625Q917.8809814453125 447.21978759765625 917.8809814453125 553.0799560546875Q917.8809814453125 659.9401245117188 885.5808715820312 749.2303771972656Q853.28076171875 838.5206298828125 786.6705017089844 892.2508239746094Q720.0602416992188 945.9810180664062 618.039794921875 945.9810180664062Q516.6593627929688 945.9810180664062 450.77911376953125 892.2508239746094Q384.89886474609375 838.5206298828125 352.5987548828125 749.640380859375Q320.29864501953125 660.7601318359375 320.29864501953125 553.0799560546875Q320.29864501953125 447.21978759765625 352.5987548828125 358.47955322265625Q384.89886474609375 269.73931884765625 450.77911376953125 216.2391357421875Q516.6593627929688 162.73895263671875 618.039794921875 162.73895263671875Z"/>
        <path transform="translate(47985 0)" d="M147.92041015625 -418V1118H362.23876953125V935.9401245117188H380.4388427734375Q399.97882080078125 970.7999267578125 435.41876220703125 1016.7499084472656Q470.85870361328125 1062.6998901367188 534.5887145996094 1097.3499450683594Q598.3187255859375 1132 702.638916015625 1132Q837.4191284179688 1132 942.6591796875 1063.9799194335938Q1047.8992309570312 995.9598388671875 1108.8492126464844 866.9998168945312Q1169.7991943359375 738.039794921875 1169.7991943359375 556.3599853515625Q1169.7991943359375 375.66009521484375 1109.7991943359375 246.2000732421875Q1049.7991943359375 116.74005126953125 944.4691467285156 47.269989013671875Q839.1390991210938 -22.2000732421875 702.7389526367188 -22.2000732421875Q601.7787475585938 -22.2000732421875 537.4087219238281 12.410003662109375Q473.0386962890625 47.02008056640625 436.5987548828125 93.16009521484375Q400.1588134765625 139.30010986328125 380.4388427734375 174.97991943359375H367.8787841796875V-418ZM653.9598388671875 165.25885009765625Q750.1401977539062 165.25885009765625 814.8804321289062 217.259033203125Q879.6206665039062 269.25921630859375 912.4207763671875 358.27947998046875Q945.2208862304688 447.29974365234375 945.2208862304688 558Q945.2208862304688 668.0602416992188 912.8307800292969 755.4404907226562Q880.440673828125 842.8207397460938 815.700439453125 893.680908203125Q750.960205078125 944.5410766601562 653.9598388671875 944.5410766601562Q559.5994873046875 944.5410766601562 494.999267578125 896.1409301757812Q430.3990478515625 847.7407836914062 397.4189453125 761.1805419921875Q364.4388427734375 674.6203002929688 364.4388427734375 558Q364.4388427734375 441.73968505859375 397.8289489746094 353.21942138671875Q431.21905517578125 264.69915771484375 496.2292785644531 214.97900390625Q561.239501953125 165.25885009765625 653.9598388671875 165.25885009765625Z"/>
        <path transform="translate(49251 0)" d="M147.92041015625 0V1118H357.47900390625L362.97882080078125 858.640380859375H346.45892333984375Q370.17889404296875 953.7802124023438 420.1288757324219 1015.0801391601562Q470.078857421875 1076.3800659179688 537.1188354492188 1106.6500549316406Q604.1588134765625 1136.9200439453125 677.0587768554688 1136.9200439453125Q798.518798828125 1136.9200439453125 873.5688171386719 1061.3800659179688Q948.6188354492188 985.840087890625 974.9386596679688 851.2406005859375H947.3388061523438Q968.958740234375 943.1602783203125 1023.2186889648438 1006.9501647949219Q1077.4786376953125 1070.7400512695312 1153.5186157226562 1103.8300476074219Q1229.55859375 1136.9200439453125 1317.4786376953125 1136.9200439453125Q1416.278564453125 1136.9200439453125 1496.4585571289062 1094.0200805664062Q1576.6385498046875 1051.1201171875 1623.778564453125 966.2101135253906Q1670.9185791015625 881.3001098632812 1670.9185791015625 754V0H1450.960205078125V731.5407104492188Q1450.960205078125 843.9010620117188 1388.5399780273438 894.0111389160156Q1326.1197509765625 944.1212158203125 1241.1595458984375 944.1212158203125Q1172.279296875 944.1212158203125 1122.09912109375 914.8711242675781Q1071.9189453125 885.6210327148438 1044.8488464355469 834.3108825683594Q1017.7787475585938 783.000732421875 1017.7787475585938 715.9605712890625V0H801.0602416992188V746.3008422851562Q801.0602416992188 835.7009887695312 743.56005859375 889.9111022949219Q686.0598754882812 944.1212158203125 596.9996337890625 944.1212158203125Q536.1394653320312 944.1212158203125 483.5892639160156 915.6911315917969Q431.0390625 887.2610473632812 399.45892333984375 831.8508605957031Q367.8787841796875 776.440673828125 367.8787841796875 694.640380859375V0Z"/>
        <path transform="translate(51070 0)" d="M629.7999267578125 -23.280029296875Q464.74005126953125 -23.280029296875 345.08013916015625 48.089996337890625Q225.42022705078125 119.46002197265625 160.93026733398438 248.46002197265625Q96.4403076171875 377.46002197265625 96.4403076171875 551.0799560546875Q96.4403076171875 723.2599487304688 159.79025268554688 853.9899597167969Q223.14019775390625 984.719970703125 339.0700988769531 1058.3599853515625Q455 1132 610.7798461914062 1132Q706.6195678710938 1132 795.9994506835938 1100.7000732421875Q885.3793334960938 1069.400146484375 956.3293151855469 1002.2802124023438Q1027.279296875 935.1602783203125 1068.7393188476562 828.3402709960938Q1110.1993408203125 721.520263671875 1110.1993408203125 570.3001098632812V492.240234375H218.80029296875V656.479736328125H996.8200073242188L894.1007690429688 602.2796630859375Q894.1007690429688 704.719970703125 862.2106628417969 783.2002563476562Q830.320556640625 861.6805419921875 767.5403442382812 905.8607177734375Q704.7601318359375 950.0408935546875 611.4998168945312 950.0408935546875Q518.239501953125 950.0408935546875 452.17926025390625 905.0407104492188Q386.1190185546875 860.04052734375 351.35888671875 786.4802856445312Q316.5987548828125 712.9200439453125 316.5987548828125 626.0598754882812V514.4403076171875Q316.5987548828125 399.43994140625 356.0888977050781 319.7796630859375Q395.57904052734375 240.119384765625 466.8692932128906 199.39923095703125Q538.1595458984375 158.6790771484375 632.0598754882812 158.6790771484375Q693.56005859375 158.6790771484375 743.8702087402344 176.32913208007812Q794.1803588867188 193.97918701171875 830.48046875 229.4193115234375Q866.7805786132812 264.85943603515625 886.16064453125 317.17962646484375L1092.559326171875 268.45965576171875Q1066.1993408203125 181.57977294921875 1002.5794067382812 115.86984252929688Q938.95947265625 50.159912109375 844.3995971679688 13.43994140625Q749.8397216796875 -23.280029296875 629.7999267578125 -23.280029296875Z"/>
        <path transform="translate(52273 0)" d="M367.8787841796875 662.4403076171875V0H147.92041015625V1118H357.638916015625L359.89886474609375 844.3001098632812H337.23876953125Q385.89886474609375 994.2603149414062 478.7789306640625 1063.1301574707031Q571.6589965820312 1132 703.518798828125 1132Q817.5987548828125 1132 903.0487365722656 1084.1500549316406Q988.4987182617188 1036.3001098632812 1036.0887145996094 942.5301208496094Q1083.6787109375 848.7601318359375 1083.6787109375 710.3599853515625V0H863.7203369140625V682.9404907226562Q863.7203369140625 803.6608276367188 800.8101501464844 872.0710144042969Q737.8999633789062 940.481201171875 628.2796630859375 940.481201171875Q553.8594360351562 940.481201171875 494.8092346191406 907.9111022949219Q435.759033203125 875.3410034179688 401.81890869140625 813.2908020019531Q367.8787841796875 751.2406005859375 367.8787841796875 662.4403076171875Z"/>
        <path transform="translate(53505 0)" d="M626.4388427734375 1118V939.1610107421875H20V1118ZM183.3201904296875 1384H403.278564453125V302.41949462890625Q403.278564453125 234.61920166015625 431.5286560058594 203.1790771484375Q459.77874755859375 171.73895263671875 525.198974609375 171.73895263671875Q542.3789672851562 171.73895263671875 570.3189086914062 175.82894897460938Q598.2588500976562 179.9189453125 618.2789306640625 183.9189453125L657.2588500976562 7.61993408203125Q621.879150390625 -4 581.7893371582031 -9.269989013671875Q541.6995239257812 -14.53997802734375 503.2796630859375 -14.53997802734375Q350.53997802734375 -14.53997802734375 266.9300842285156 63.669952392578125Q183.3201904296875 141.8798828125 183.3201904296875 284.2796630859375Z"/>
        <path transform="translate(54748 0)" d="M804.6597290039062 723.4998168945312V533.0208129882812H142.74005126953125V723.4998168945312Z"/>
        <path transform="translate(56241 0)" d="M367.8787841796875 1490V0H147.92041015625V1490Z"/>
        <path transform="translate(56757 0)" d="M629.7999267578125 -23.280029296875Q464.74005126953125 -23.280029296875 345.08013916015625 48.089996337890625Q225.42022705078125 119.46002197265625 160.93026733398438 248.46002197265625Q96.4403076171875 377.46002197265625 96.4403076171875 551.0799560546875Q96.4403076171875 723.2599487304688 159.79025268554688 853.9899597167969Q223.14019775390625 984.719970703125 339.0700988769531 1058.3599853515625Q455 1132 610.7798461914062 1132Q706.6195678710938 1132 795.9994506835938 1100.7000732421875Q885.3793334960938 1069.400146484375 956.3293151855469 1002.2802124023438Q1027.279296875 935.1602783203125 1068.7393188476562 828.3402709960938Q1110.1993408203125 721.520263671875 1110.1993408203125 570.3001098632812V492.240234375H218.80029296875V656.479736328125H996.8200073242188L894.1007690429688 602.2796630859375Q894.1007690429688 704.719970703125 862.2106628417969 783.2002563476562Q830.320556640625 861.6805419921875 767.5403442382812 905.8607177734375Q704.7601318359375 950.0408935546875 611.4998168945312 950.0408935546875Q518.239501953125 950.0408935546875 452.17926025390625 905.0407104492188Q386.1190185546875 860.04052734375 351.35888671875 786.4802856445312Q316.5987548828125 712.9200439453125 316.5987548828125 626.0598754882812V514.4403076171875Q316.5987548828125 399.43994140625 356.0888977050781 319.7796630859375Q395.57904052734375 240.119384765625 466.8692932128906 199.39923095703125Q538.1595458984375 158.6790771484375 632.0598754882812 158.6790771484375Q693.56005859375 158.6790771484375 743.8702087402344 176.32913208007812Q794.1803588867188 193.97918701171875 830.48046875 229.4193115234375Q866.7805786132812 264.85943603515625 886.16064453125 317.17962646484375L1092.559326171875 268.45965576171875Q1066.1993408203125 181.57977294921875 1002.5794067382812 115.86984252929688Q938.95947265625 50.159912109375 844.3995971679688 13.43994140625Q749.8397216796875 -23.280029296875 629.7999267578125 -23.280029296875Z"/>
        <path transform="translate(57960 0)" d="M460.74041748046875 -24.56005859375Q354.5604248046875 -24.56005859375 268.7803955078125 14.629974365234375Q183.0003662109375 53.82000732421875 132.90032958984375 129.9200439453125Q82.80029296875 206.02008056640625 82.80029296875 316.2000732421875Q82.80029296875 411.4801025390625 119.54034423828125 472.38006591796875Q156.2803955078125 533.280029296875 218.43045043945312 569.0399780273438Q280.58050537109375 604.7999267578125 357.1305236816406 622.7898864746094Q433.6805419921875 640.7798461914062 513.3004760742188 650.0598754882812Q612.2205200195312 661.9799194335938 674.0505676269531 669.5198974609375Q735.880615234375 677.0598754882812 765.4806518554688 694.5098571777344Q795.0806884765625 711.9598388671875 795.0806884765625 751.3399047851562V756.9799194335938Q795.0806884765625 819.6002197265625 770.9706115722656 862.9704284667969Q746.8605346679688 906.3406372070312 699.1803588867188 929.5507507324219Q651.5001831054688 952.7608642578125 580.5198974609375 952.7608642578125Q508.07958984375 952.7608642578125 455.7593994140625 930.28076171875Q403.439208984375 907.8006591796875 370.63909912109375 873.0905456542969Q337.8389892578125 838.3804321289062 321.81890869140625 800.2803955078125L114.80029296875 853.5005493164062Q152.94049072265625 954.0606079101562 223.9605712890625 1015.0704650878906Q294.98065185546875 1076.080322265625 386.8504943847656 1104.0401611328125Q478.7203369140625 1132 577.4998168945312 1132Q644.83935546875 1132 720.8391723632812 1115.8901062011719Q796.8389892578125 1099.7802124023438 863.698974609375 1057.9802856445312Q930.5589599609375 1016.1803588867188 972.7990112304688 939.8402709960938Q1015.0390625 863.5001831054688 1015.0390625 742.2197875976562V0H802.2205200195312V153.0799560546875H790.9404907226562Q769.2406005859375 109.7601318359375 726.2506408691406 68.80010986328125Q683.2606811523438 27.840087890625 617.5206298828125 1.6400146484375Q551.7805786132812 -24.56005859375 460.74041748046875 -24.56005859375ZM509.5596923828125 151.53924560546875Q599.840087890625 151.53924560546875 663.7102966308594 186.93939208984375Q727.5805053710938 222.33953857421875 761.6905822753906 279.979736328125Q795.8006591796875 337.61993408203125 795.8006591796875 402.56005859375V546.2205200195312Q783.9006958007812 534.48046875 750.320556640625 524.7904357910156Q716.7404174804688 515.1004028320312 674.1002197265625 507.640380859375Q631.4600219726562 500.18035888671875 591.099853515625 494.9503479003906Q550.7396850585938 489.7203369140625 525.0996704101562 486.54034423828125Q463.33953857421875 478.7203369140625 411.6993408203125 459.76031494140625Q360.05914306640625 440.80029296875 329.65899658203125 405.8201904296875Q299.25885009765625 370.840087890625 299.25885009765625 313.13983154296875Q299.25885009765625 259.9996337890625 326.5589599609375 224.14950561523438Q353.85906982421875 188.29937744140625 401.17926025390625 169.9193115234375Q448.49945068359375 151.53924560546875 509.5596923828125 151.53924560546875Z"/>
        <path transform="translate(59123 0)" d="M563.5005493164062 -22.2000732421875Q428.10040283203125 -22.2000732421875 322.2703552246094 47.269989013671875Q216.4403076171875 116.74005126953125 156.4403076171875 246.2000732421875Q96.4403076171875 375.66009521484375 96.4403076171875 556.3599853515625Q96.4403076171875 738.039794921875 157.39028930664062 866.9998168945312Q218.34027099609375 995.9598388671875 324.080322265625 1063.9799194335938Q429.82037353515625 1132 563.6005859375 1132Q667.9207763671875 1132 731.6507873535156 1097.3499450683594Q795.3807983398438 1062.6998901367188 831.3207397460938 1016.7499084472656Q867.2606811523438 970.7999267578125 885.8006591796875 935.9401245117188H898.3607177734375V1490H1118.319091796875V0H904.000732421875V174.97991943359375H885.8006591796875Q866.9006958007812 139.30010986328125 830.0507507324219 93.16009521484375Q793.2008056640625 47.02008056640625 729.3307800292969 12.410003662109375Q665.4607543945312 -22.2000732421875 563.5005493164062 -22.2000732421875ZM612.2796630859375 165.25885009765625Q705.8200073242188 165.25885009765625 770.4202270507812 214.97900390625Q835.0204467773438 264.69915771484375 868.4105529785156 353.21942138671875Q901.8006591796875 441.73968505859375 901.8006591796875 558Q901.8006591796875 674.6203002929688 868.820556640625 761.1805419921875Q835.8404541015625 847.7407836914062 771.240234375 896.1409301757812Q706.6400146484375 944.5410766601562 612.2796630859375 944.5410766601562Q515.4592895507812 944.5410766601562 450.6290588378906 893.680908203125Q385.798828125 842.8207397460938 353.4087219238281 755.4404907226562Q321.01861572265625 668.0602416992188 321.01861572265625 558Q321.01861572265625 447.29974365234375 353.8187255859375 358.27947998046875Q386.61883544921875 269.25921630859375 451.85906982421875 217.259033203125Q517.0993041992188 165.25885009765625 612.2796630859375 165.25885009765625Z"/>
        <path transform="translate(60389 0)" d="M629.7999267578125 -23.280029296875Q464.74005126953125 -23.280029296875 345.08013916015625 48.089996337890625Q225.42022705078125 119.46002197265625 160.93026733398438 248.46002197265625Q96.4403076171875 377.46002197265625 96.4403076171875 551.0799560546875Q96.4403076171875 723.2599487304688 159.79025268554688 853.9899597167969Q223.14019775390625 984.719970703125 339.0700988769531 1058.3599853515625Q455 1132 610.7798461914062 1132Q706.6195678710938 1132 795.9994506835938 1100.7000732421875Q885.3793334960938 1069.400146484375 956.3293151855469 1002.2802124023438Q1027.279296875 935.1602783203125 1068.7393188476562 828.3402709960938Q1110.1993408203125 721.520263671875 1110.1993408203125 570.3001098632812V492.240234375H218.80029296875V656.479736328125H996.8200073242188L894.1007690429688 602.2796630859375Q894.1007690429688 704.719970703125 862.2106628417969 783.2002563476562Q830.320556640625 861.6805419921875 767.5403442382812 905.8607177734375Q704.7601318359375 950.0408935546875 611.4998168945312 950.0408935546875Q518.239501953125 950.0408935546875 452.17926025390625 905.0407104492188Q386.1190185546875 860.04052734375 351.35888671875 786.4802856445312Q316.5987548828125 712.9200439453125 316.5987548828125 626.0598754882812V514.4403076171875Q316.5987548828125 399.43994140625 356.0888977050781 319.7796630859375Q395.57904052734375 240.119384765625 466.8692932128906 199.39923095703125Q538.1595458984375 158.6790771484375 632.0598754882812 158.6790771484375Q693.56005859375 158.6790771484375 743.8702087402344 176.32913208007812Q794.1803588867188 193.97918701171875 830.48046875 229.4193115234375Q866.7805786132812 264.85943603515625 886.16064453125 317.17962646484375L1092.559326171875 268.45965576171875Q1066.1993408203125 181.57977294921875 1002.5794067382812 115.86984252929688Q938.95947265625 50.159912109375 844.3995971679688 13.43994140625Q749.8397216796875 -23.280029296875 629.7999267578125 -23.280029296875Z"/>
        <path transform="translate(61592 0)" d="M147.92041015625 0V1118H360.798828125V938.4403076171875H372.798828125Q403.61883544921875 1029.56005859375 480.7789306640625 1081.6000366210938Q557.9390258789062 1133.6400146484375 655.9591064453125 1133.6400146484375Q677.0390625 1133.6400146484375 704.2690734863281 1132.1000366210938Q731.4990844726562 1130.56005859375 748.9390258789062 1128.3001098632812V918.3212890625Q736.9791870117188 921.9412231445312 702.9092712402344 926.0312194824219Q668.83935546875 930.1212158203125 633.7393188476562 930.1212158203125Q557.5191650390625 930.1212158203125 496.9890441894531 897.8811645507812Q436.45892333984375 865.64111328125 402.1688537597656 809.1210327148438Q367.8787841796875 752.6009521484375 367.8787841796875 678.7608642578125V0Z"/>
        <path transform="translate(62384 0)" d="M549.3395385742188 -23.280029296875Q427.6798095703125 -23.280029296875 333.32000732421875 11.929901123046875Q238.960205078125 47.13983154296875 178.35031127929688 115.56973266601562Q117.74041748046875 183.9996337890625 97.92041015625 282.51953125L305.09893798828125 325.85943603515625Q328.37896728515625 238.53924560546875 391.0091247558594 196.88919067382812Q453.6392822265625 155.2391357421875 550.9393920898438 155.2391357421875Q657.4998168945312 155.2391357421875 720.4300842285156 199.4793701171875Q783.3603515625 243.7196044921875 783.3603515625 306.41986083984375Q783.3603515625 359.74005126953125 744.5702819824219 394.7301940917969Q705.7802124023438 429.7203369140625 625.840087890625 447.46038818359375L437.68017578125 490.02044677734375Q282.4403076171875 525.1204833984375 206.46038818359375 601.8804321289062Q130.48046875 678.640380859375 130.48046875 799.1602783203125Q130.48046875 898.9401245117188 186.01040649414062 973.7900695800781Q241.54034423828125 1048.6400146484375 339.00018310546875 1090.3200073242188Q436.46002197265625 1132 562.8397216796875 1132Q683.7794799804688 1132 769.7692565917969 1096.780029296875Q855.759033203125 1061.56005859375 909.3189086914062 998.9901428222656Q962.8787841796875 936.4202270507812 986.4388427734375 853.2803955078125L789.0602416992188 809.6604614257812Q767.8601684570312 868.760498046875 716.0700988769531 913.5306701660156Q664.280029296875 958.3008422851562 565.0996704101562 958.3008422851562Q473.73931884765625 958.3008422851562 412.7290954589844 917.2506408691406Q351.7188720703125 876.200439453125 351.7188720703125 812.5001831054688Q351.7188720703125 757.159912109375 392.4890441894531 722.4497985839844Q433.25921630859375 687.7396850585938 524.95947265625 666.8995971679688L704.5790405273438 626.8995971679688Q859.9989013671875 591.9795532226562 935.0688171386719 516.7495422363281Q1010.1387329101562 441.51953125 1010.1387329101562 324.89959716796875Q1010.1387329101562 222.93975830078125 951.7588500976562 144.4598388671875Q893.3789672851562 65.97991943359375 789.4691467285156 21.349945068359375Q685.559326171875 -23.280029296875 549.3395385742188 -23.280029296875Z"/>
        <path transform="translate(63487 0)" d="M367.8787841796875 662.4403076171875V0H147.92041015625V1490H366.078857421875V844.3001098632812H337.23876953125Q385.89886474609375 994.2603149414062 478.7789306640625 1063.1301574707031Q571.6589965820312 1132 703.518798828125 1132Q817.5987548828125 1132 903.458740234375 1084.1500549316406Q989.3187255859375 1036.3001098632812 1036.9087219238281 942.5301208496094Q1084.4987182617188 848.7601318359375 1084.4987182617188 710.3599853515625V0H863.7203369140625V682.9404907226562Q863.7203369140625 803.6608276367188 800.8101501464844 872.0710144042969Q737.8999633789062 940.481201171875 628.2796630859375 940.481201171875Q553.8594360351562 940.481201171875 494.8092346191406 907.9111022949219Q435.759033203125 875.3410034179688 401.81890869140625 813.2908020019531Q367.8787841796875 751.2406005859375 367.8787841796875 662.4403076171875Z"/>
        <path transform="translate(64719 0)" d="M147.92041015625 0V1118H367.8787841796875V0ZM258.53961181640625 1288.5805053710938Q201.9598388671875 1288.5805053710938 161.17999267578125 1327.009951619707Q120.400146484375 1365.4393978683202 120.400146484375 1419.2406226163785Q120.400146484375 1474.1398315429688 161.17999267578125 1512.0596923828125Q201.9598388671875 1549.9795532226562 258.53961181640625 1549.9795532226562Q315.8879656110491 1549.9795532226562 356.6935250418527 1512.0789773123606Q397.49908447265625 1474.1784014020648 397.49908447265625 1419.2500305175781Q397.49908447265625 1365.4202270507812 356.6935250418527 1327.0003662109375Q315.8879656110491 1288.5805053710938 258.53961181640625 1288.5805053710938Z"/>
        <path transform="translate(65235 0)" d="M147.92041015625 -418V1118H362.23876953125V935.9401245117188H380.4388427734375Q399.97882080078125 970.7999267578125 435.41876220703125 1016.7499084472656Q470.85870361328125 1062.6998901367188 534.5887145996094 1097.3499450683594Q598.3187255859375 1132 702.638916015625 1132Q837.4191284179688 1132 942.6591796875 1063.9799194335938Q1047.8992309570312 995.9598388671875 1108.8492126464844 866.9998168945312Q1169.7991943359375 738.039794921875 1169.7991943359375 556.3599853515625Q1169.7991943359375 375.66009521484375 1109.7991943359375 246.2000732421875Q1049.7991943359375 116.74005126953125 944.4691467285156 47.269989013671875Q839.1390991210938 -22.2000732421875 702.7389526367188 -22.2000732421875Q601.7787475585938 -22.2000732421875 537.4087219238281 12.410003662109375Q473.0386962890625 47.02008056640625 436.5987548828125 93.16009521484375Q400.1588134765625 139.30010986328125 380.4388427734375 174.97991943359375H367.8787841796875V-418ZM653.9598388671875 165.25885009765625Q750.1401977539062 165.25885009765625 814.8804321289062 217.259033203125Q879.6206665039062 269.25921630859375 912.4207763671875 358.27947998046875Q945.2208862304688 447.29974365234375 945.2208862304688 558Q945.2208862304688 668.0602416992188 912.8307800292969 755.4404907226562Q880.440673828125 842.8207397460938 815.700439453125 893.680908203125Q750.960205078125 944.5410766601562 653.9598388671875 944.5410766601562Q559.5994873046875 944.5410766601562 494.999267578125 896.1409301757812Q430.3990478515625 847.7407836914062 397.4189453125 761.1805419921875Q364.4388427734375 674.6203002929688 364.4388427734375 558Q364.4388427734375 441.73968505859375 397.8289489746094 353.21942138671875Q431.21905517578125 264.69915771484375 496.2292785644531 214.97900390625Q561.239501953125 165.25885009765625 653.9598388671875 165.25885009765625Z"/>
    </g>
  </g>
</svg>
