<svg xmlns="http://www.w3.org/2000/svg" viewBox="42 -1448 11709 2052" role="img" aria-label="a companion">
  <g transform="scale(1,-1)">
    <g fill="#2F6BA5">
    <path transform="translate(0 0)" d="M217 685 164 699Q165 722 165 762Q165 804 164 829Q291 912 372 941Q434 962 511 962Q625 962 703.0 919.0Q781 876 819 796Q845 740 845 643L841 460V162Q841 114 849 93Q855 78 868 71Q878 65 910 63L975 57V0Q893 7 831 7Q771 7 671 0L676 176Q472 22 434.0 2.5Q396 -17 338 -17Q217 -17 149.5 47.5Q82 112 82 219Q82 288 105.5 345.0Q129 402 162.0 435.5Q195 469 229 485Q287 512 417.5 543.0Q548 574 676 589Q677 684 653.0 737.0Q629 790 572.0 824.0Q515 858 433 858Q374 858 329.5 842.0Q285 826 275 815L257 779Q230 719 217 685ZM676 528Q546 506 454.0 479.0Q362 452 324 423Q301 406 284 372Q258 322 258 261Q258 187 299.0 145.5Q340 104 413 104Q480 104 545.5 142.5Q611 181 676 258Z"/>
    <path transform="translate(1536 0)" d="M868 115 828 48Q759 11 691.5 -6.0Q624 -23 539 -23Q329 -23 204.5 103.5Q80 230 80 451Q80 568 113.5 654.5Q147 741 196 788Q229 821 321.5 873.5Q414 926 451 941Q519 970 614 970Q704 970 776 951Q822 939 868 911Q856 834 851.0 794.5Q846 755 838 651H781Q775 748 769 772Q765 787 751 799Q715 827 658.5 847.5Q602 868 535 868Q451 868 389.5 833.5Q328 799 294.0 724.0Q260 649 260 538Q260 402 308.0 292.0Q356 182 438.5 131.5Q521 81 623 81Q674 81 722.5 93.5Q771 106 847 141Z"/>
    <path transform="translate(2445 0)" d="M68 460Q68 684 210.5 825.5Q353 967 576 967Q786 967 918.0 835.0Q1050 703 1050 494Q1050 348 982.0 227.0Q914 106 790.0 37.5Q666 -31 517 -31Q401 -31 320.5 8.0Q240 47 190.0 106.0Q140 165 114 227Q68 336 68 460ZM257 534Q257 411 298.0 284.0Q339 157 416.5 98.5Q494 40 585 40Q701 40 779.0 132.0Q857 224 857 415Q857 574 810.5 689.5Q764 805 692.0 852.5Q620 900 533 900Q410 900 333.5 811.0Q257 722 257 534Z"/>
    <path transform="translate(3563 0)" d="M42 0V57L137 58Q158 59 169.5 65.5Q181 72 187 82Q198 102 201 153Q201 166 207 440V559Q207 639 204 731Q201 790 194.5 801.0Q188 812 172.0 817.5Q156 823 42 822V879Q244 907 337 952Q357 962 364 962Q371 962 375.0 957.0Q379 952 379 942Q379 935 378 926Q374 878 372 783L503 903Q528 925 534 928Q557 941 600.0 952.0Q643 963 690 963Q786 963 861.0 916.0Q936 869 976 777L1086 879Q1123 913 1137 921Q1163 936 1211.0 949.0Q1259 962 1306 962Q1420 962 1497.0 901.5Q1574 841 1596 764Q1610 713 1610 544V440L1613 301Q1616 180 1616 159Q1618 109 1628 86Q1632 77 1640.5 70.5Q1649 64 1665 60Q1671 59 1775 57V0Q1649 6 1603 6Q1559 6 1426 0L1435 276L1438 384V470Q1438 638 1421.0 699.5Q1404 761 1349.5 799.0Q1295 837 1223 837Q1140 837 1073 789Q1023 752 1007.0 702.0Q991 652 991 507V440L994 301Q996 180 997 159Q999 109 1009 86Q1013 77 1021.0 70.5Q1029 64 1045 60Q1052 59 1156 57V0Q1009 8 920 8Q848 8 658 0V57L753 58Q775 59 786.5 65.5Q798 72 804 82Q815 102 817 153Q818 166 823 440V518Q823 647 803.0 706.5Q783 766 733.0 801.5Q683 837 613 837Q553 837 499.5 811.5Q446 786 417.0 748.0Q388 710 382 667Q372 598 372 501V440Q378 180 378 159Q380 109 390 86Q394 77 402.0 70.5Q410 64 427 60Q433 59 537 57V0Q399 8 302 8Q216 8 42 0Z"/>
    <path transform="translate(5371 0)" d="M36 823V881Q54 881 112.0 889.5Q170 898 241.0 918.5Q312 939 348 958Q359 964 366 964Q373 964 377.5 959.0Q382 954 382 942Q382 937 381 918Q379 889 379 865V759Q548 916 590 936Q645 963 754 963Q881 963 973.0 905.5Q1065 848 1106.5 756.5Q1148 665 1148 561Q1148 498 1133.5 442.0Q1119 386 1096.5 336.5Q1074 287 1046.5 245.5Q1019 204 995 183Q981 170 922.5 123.0Q864 76 797.5 41.5Q731 7 705 -1Q648 -19 584 -19Q534 -19 486.5 -7.0Q439 5 379 34V-125Q384 -378 385 -404Q386 -453 397 -476Q401 -487 409.5 -493.5Q418 -500 434 -503Q443 -505 553 -507V-564Q428 -559 222 -559Q108 -559 47 -564V-507L142 -506Q163 -505 174.5 -498.5Q186 -492 192 -482Q203 -462 206 -411Q207 -398 212 -125V230Q212 403 208.0 585.0Q204 767 199.5 783.5Q195 800 185.0 808.5Q175 817 159 820ZM379 206Q432 152 500.0 121.0Q568 90 643 90Q734 90 808.5 135.5Q883 181 926.5 277.0Q970 373 970 486Q970 595 928.5 675.5Q887 756 811.0 796.5Q735 837 658 837Q601 837 545.5 814.5Q490 792 445.0 749.0Q400 706 385 667Q379 648 379 594Z"/>
    <path transform="translate(6602 0)" d="M217 685 164 699Q165 722 165 762Q165 804 164 829Q291 912 372 941Q434 962 511 962Q625 962 703.0 919.0Q781 876 819 796Q845 740 845 643L841 460V162Q841 114 849 93Q855 78 868 71Q878 65 910 63L975 57V0Q893 7 831 7Q771 7 671 0L676 176Q472 22 434.0 2.5Q396 -17 338 -17Q217 -17 149.5 47.5Q82 112 82 219Q82 288 105.5 345.0Q129 402 162.0 435.5Q195 469 229 485Q287 512 417.5 543.0Q548 574 676 589Q677 684 653.0 737.0Q629 790 572.0 824.0Q515 858 433 858Q374 858 329.5 842.0Q285 826 275 815L257 779Q230 719 217 685ZM676 528Q546 506 454.0 479.0Q362 452 324 423Q301 406 284 372Q258 322 258 261Q258 187 299.0 145.5Q340 104 413 104Q480 104 545.5 142.5Q611 181 676 258Z"/>
    <path transform="translate(7626 0)" d="M28 0V57L123 58Q144 59 155.5 65.5Q167 72 173 82Q184 102 187 153Q187 166 193 440V559Q193 639 190 731Q187 790 180.5 801.0Q174 812 158.0 817.5Q142 823 28 822V879Q230 907 323 952Q343 962 350 962Q357 962 361.0 957.0Q365 952 365 942Q365 935 364 926Q361 890 358 774L544 933Q626 963 699 963Q780 963 852.5 930.0Q925 897 961.5 847.0Q998 797 1010 721Q1017 676 1017 470V293Q1017 163 1024 116Q1029 86 1039.5 74.5Q1050 63 1072 60L1179 57V0Q1081 7 1016 7Q960 7 830 0Q844 247 844 312V480Q844 637 832 686Q815 753 755.0 794.0Q695 835 610 835Q535 835 473.0 799.5Q411 764 384.5 717.5Q358 671 358 561V440Q364 180 364 159Q366 109 376 86Q380 77 388.0 70.5Q396 64 413 60Q419 59 523 57V0Q401 7 302 7Q218 7 28 0Z"/>
    <path transform="translate(8818 0)" d="M289 1408Q336 1408 368.5 1375.0Q401 1342 401 1295Q401 1249 368.0 1216.0Q335 1183 289 1183Q242 1183 209.0 1216.0Q176 1249 176 1295Q176 1342 209.0 1375.0Q242 1408 289 1408ZM45 823V880Q239 902 371 964L393 948Q385 735 385 622V440Q390 180 391 159Q392 109 402 86Q407 77 415.0 70.5Q423 64 439 60Q445 59 550 57V0Q398 7 307 7Q227 7 45 0V57L140 58Q161 59 172.5 65.5Q184 72 190 82Q201 102 204 153Q204 166 210 440V616Q210 765 200 793Q194 808 178.5 815.5Q163 823 45 823Z"/>
    <path transform="translate(9414 0)" d="M68 460Q68 684 210.5 825.5Q353 967 576 967Q786 967 918.0 835.0Q1050 703 1050 494Q1050 348 982.0 227.0Q914 106 790.0 37.5Q666 -31 517 -31Q401 -31 320.5 8.0Q240 47 190.0 106.0Q140 165 114 227Q68 336 68 460ZM257 534Q257 411 298.0 284.0Q339 157 416.5 98.5Q494 40 585 40Q701 40 779.0 132.0Q857 224 857 415Q857 574 810.5 689.5Q764 805 692.0 852.5Q620 900 533 900Q410 900 333.5 811.0Q257 722 257 534Z"/>
    <path transform="translate(10532 0)" d="M28 0V57L123 58Q144 59 155.5 65.5Q167 72 173 82Q184 102 187 153Q187 166 193 440V559Q193 639 190 731Q187 790 180.5 801.0Q174 812 158.0 817.5Q142 823 28 822V879Q230 907 323 952Q343 962 350 962Q357 962 361.0 957.0Q365 952 365 942Q365 935 364 926Q361 890 358 774L544 933Q626 963 699 963Q780 963 852.5 930.0Q925 897 961.5 847.0Q998 797 1010 721Q1017 676 1017 470V293Q1017 163 1024 116Q1029 86 1039.5 74.5Q1050 63 1072 60L1179 57V0Q1081 7 1016 7Q960 7 830 0Q844 247 844 312V480Q844 637 832 686Q815 753 755.0 794.0Q695 835 610 835Q535 835 473.0 799.5Q411 764 384.5 717.5Q358 671 358 561V440Q364 180 364 159Q366 109 376 86Q380 77 388.0 70.5Q396 64 413 60Q419 59 523 57V0Q401 7 302 7Q218 7 28 0Z"/>
    </g>
    <g fill="#B4BAC0">
      <rect x="82" y="-330" width="5295" height="20"/>
      <rect x="5587" y="-330" width="6124" height="20"/>
    </g>
  </g>
</svg>
